<?xml version="1.0" encoding="UTF-8"?> <svg xmlns="http://www.w3.org/2000/svg" viewBox="0 0 998.55 998.55"> <defs> <style>.cls-1{fill:none;stroke:#5fc9df;stroke-miterlimit:10;stroke-width:3px;}</style> </defs> <title>davinci72</title> <g id="Layer_2" data-name="Layer 2"> <g id="Layer_1-2" data-name="Layer 1"> <rect class="cls-1" x="65.19" y="127.14" width="868.17" height="868.17"></rect> <circle class="cls-1" cx="499.28" cy="499.28" r="497.78"></circle> </g> <g id="Layer_3" data-name="Layer 3"> <path class="cls-1" d="M497.27,216.78c-7.37-.1-14.84.78-22.19,1.2-3.34.19-24.41-.07-24.13-.39,2.83-3.23,11.29-1.25,14.15-4.56-2.24-1.51-8.66-3.69-11.69-3.69-4.08,0-8,3.79-11.67,2.47-1.6-.58-.46-3.1-2.9-3.82-3.69-1.09-5.12,1.73-8,2-1.08.1-7.22,3.27-3.84-.6-2.46-1.18-2.66-2.59-5-3.51-3.63-1.44-7,.27-10.45-2.12-3.43,5.39-12.17-3.49-17.79-4.68-8.13-1.72-16.46-2.69-24.62-4.31Q337,188.4,305.69,179.16c-11.51-3.38-132.56-41.87-129.95-49.88.58-1.77,57.58,16.48,63.17,19.62,1.59.89,5.05,4.82,5.91,5,5,1.16.69-1.54,2.9-1.69,4.35-.29,10.09.84,15.77,2.73,7.37,2.45,11.48,1.38,18.77,1.44,2.67,0,5.21,1.24,7.82,1.76,1.51.3,2.84,2.42,4.44,2.42.85,0,1.93-1.35,2.56-1.3,3.46.3,6.43-.9,10.75.67,2.62,1,5.74,3.9,8.63,4s1.82-3.18,4-3.39c3-.3,6.19.74,9.08,1.87,2.26.89,5.25,3.67,7.49,4.05,6.4,1.07.78-1.16,5.18-1.41,5.69-.32,8.75,2.6,13.6,4.31,3.88,1.37,4.73.89,9.22,1.09,7.56.33,8.64,4.77,14.64,6.34,1.5.39,3.06-2.5,5-2.09,4.15.87,5.83,5.55,8.8,6.66,3.89,1.46,6.71-.15,12,2.83,4.07,2.29,4.13,2.26,6.37,2.77.19,0,4-.76,5.6-.49,4.33.75,6.84,4.68,10.76,6.16,2.89,1.09,5.47.93,8.7,1.53a149.54,149.54,0,0,1,17.69,4.87c3.69,1.17,8.49,6.61,11.37,6.75.12-4.22,12.15,1.05,14.22,1.56,1.67.41,15.74,5.28,7.81,4.63C488.13,212.27,501.21,215.32,497.27,216.78Zm-171-49.46c-.42,1,29.15,21.23,32.4,21.37-1.22-4.67-28.26-25.73-34.17-25.17C325,165.37,326.53,165.21,326.25,167.32ZM301,160.05c-1,2.67,35.8,23.91,36,23.78C332.44,174.91,311.62,162.36,301,160.05Zm55.68,17.65s15.67,13.07,16.79,13.68c-.51-5.84-20.89-22.9-26.9-24.07C346.13,173.14,353.31,173.25,356.63,177.7ZM388.82,194c1.71-1.59-20.57-24.37-23.1-22C372.17,180.65,380.25,187.13,388.82,194ZM283,159.19c1.52,6.11,22.75,13.65,28.65,16.46C312,175.1,287.43,157.43,283,159.19Zm-14.63.11c2.53,2.46,23.79,13.38,24.8,11.68S271.31,160,268.33,159.3Zm135.37,29c.93,1.21,8.46,10.26,9.22,9.56,1.6-1.46-9.59-14.4-11.79-14.3C399.18,183.62,403.81,187.29,403.7,188.28Zm-11.12-3.35c-.4-2-5.2-6.48-7.32-7,.21,3,8.14,13.69,11.45,15.11C396.84,190.5,394,187.08,392.58,184.93Zm35.29,14.67c-.4-.55-8.48-10.76-9.33-8.46C418,192.48,426.83,201.47,427.87,199.6ZM486,216c.54-1.38-15-4.94-17.15-1C472.73,216.39,481.36,215.31,486,216ZM265.17,162.24c0-2.09-7.54-7.5-8.29-6.21C255.78,157.9,263.42,161.48,265.17,162.24Z"></path> <path class="cls-1" d="M252.82,176.77c4.1-1.52,21.37,3.63,26.55,4.25,6.33.77,27.68-1.85,31.62,1.66-7.29,4.92-25.45,2.24-34,1.27-6.29-.71-13.47-1.21-19.5-2.95-1.35-.39-7.51-.75-6.66-3C251,177.65,252.57,176.21,252.82,176.77Z"></path> <path class="cls-1" d="M314.7,189.41c.61-.29,9.27-3.16,9.52-.67.39,3.77-25.36,4.08-29.28,4.14-2.62,0-26.65-.62-19.65-4.57-.66.37,13.42,1.45,14.49,1.44C298,189.67,306.59,190.85,314.7,189.41Z"></path> <path class="cls-1" d="M318,205.72c4.43-.68,42.68-9.13,42.64-7.82-.11,3.16-27.32,7.09-30.34,7.84-5,1.24-9.56,4-14.72,1.53S320.09,201.56,318,205.72Z"></path> <path class="cls-1" d="M296.4,197c4.74,8.57,40.54-7.91,47.78-3.47-4.63,4.28-20.28,5.36-26.67,6.12-5.21.61-13.24,2.91-18.11,2.06C296.3,201.14,290.15,198.54,296.4,197Z"></path> <path class="cls-1" d="M336.73,210.71c1.65,1.11,9,1.25,9,2.29-.09,2.06-14.63.12-13-3.43.81-1.76,17.38-2.92,20.45-3.66,2.25-.55,23.09-7.2,22.92-5.48C375.44,206.86,336.84,209.92,336.73,210.71Z"></path> <path class="cls-1" d="M235.27,164.28c3.92.72,39.59,8.26,39.63,9.71C275.11,181.18,233.59,165.23,235.27,164.28Z"></path> <path class="cls-1" d="M353.63,214.5c2,1.94,4.84-.23,6.74,1.87-1.42.94-7.68,1.44-8.9-.13-2.47-3.2,3.36-2.82,5.18-3.61,2.46-1.07,27.18-9.74,27.2-7.8C383.89,211.21,354.48,212.26,353.63,214.5Z"></path> <path class="cls-1" d="M399,208.55c-6.43,1.31-12.13,4.92-18.44,6.72-1,.28-15.27,2.39-13-1.1-.72,1.11,16.25-3.32,16.9-3.54,2.93-1,6.67-2.61,9.72-2.86C393.73,207.8,402.82,207,399,208.55Z"></path> <path class="cls-1" d="M385,219c3.06-1.14,25.77-11.39,27.8-10C415.88,211.11,382.4,222.76,385,219Z"></path> <path class="cls-1" d="M421,215.78c-.9.07-17.47,8.43-16.8,4.47.38-2.23,17.64-7.62,18.3-6.8A2,2,0,0,1,421,215.78Z"></path> <path class="cls-1" d="M231.33,162c-1.64-.13-17.12-5.23-15.27-8.74C216.18,153.06,236.75,160,231.33,162Z"></path> <path class="cls-1" d="M422.23,218.79c2.6.07,16-6.74,16.26-5.86C440.42,220.65,420.07,222.13,422.23,218.79Z"></path> <path class="cls-1" d="M452.87,215c-1.1.48-7.45,4.6-7.68,4.46-2.7-1.59-.45-4,1.87-5.67.82-.57,6.43-3,7.21-.92C454.65,213.87,453.17,215.58,452.87,215Z"></path> <path class="cls-1" d="M326.25,167.32c.29-2.21-1.24-2-1.77-3.8,5.91-.56,32.95,20.5,34.17,25.17C355.05,188.54,325.82,168.34,326.25,167.32Z"></path> <path class="cls-1" d="M301,160.05c10.57,2.29,31.47,14.82,36,23.78C336.75,184,299.94,162.72,301,160.05Z"></path> <path class="cls-1" d="M356.63,177.7c-3.31-4.43-10.49-4.61-10.11-10.39,6.1,1.18,26.39,18.28,26.9,24.07C372.3,190.77,356.6,177.72,356.63,177.7Z"></path> <path class="cls-1" d="M388.82,194c-8.6-6.92-16.63-13.34-23.1-22C368.26,169.65,390.57,192.41,388.82,194Z"></path> <path class="cls-1" d="M283,159.19c4.58-1.8,29,16,28.65,16.46C305.74,172.85,284.47,165.29,283,159.19Z"></path> <path class="cls-1" d="M268.33,159.3c3,.72,25.89,9.83,24.8,11.68S270.94,161.84,268.33,159.3Z"></path> <path class="cls-1" d="M403.7,188.28c.11-1-4.52-4.66-2.57-4.74,2.36-.11,13.29,12.93,11.79,14.3C412.1,198.59,404.32,189.09,403.7,188.28Z"></path> <path class="cls-1" d="M392.58,184.93c1.38,2.15,4.26,5.57,4.13,8.11-3.29-1.41-11.25-12.22-11.45-15.11C387.14,178.39,392.18,182.88,392.58,184.93Z"></path> <path class="cls-1" d="M427.87,199.6c-1.41,2.52-9.56-7.84-9.33-8.46C419.43,188.73,427.28,198.8,427.87,199.6Z"></path> <path class="cls-1" d="M486,216c-4.75-.73-13.08.43-17.15-1C471,211.09,486.54,214.65,486,216Z"></path> <path class="cls-1" d="M265.17,162.24c-1.66-.72-9.27-4.55-8.29-6.21S265.14,160.43,265.17,162.24Z"></path> <path class="cls-1" d="M497.6,219.6c-8.29,5.52-15.88,12.28-23.7,18.4-3.56,2.79-27.22,18.6-27.17,18,.48-6,11.53-10.13,12-16.28-3.75-.1-12.69,2.2-16.06,4.52-4.54,3.11-5.74,10.65-10.94,11.88-2.25.53-3.08-3.36-6.39-2.36-5,1.52-4.26,6-7.23,8.51-1.13,1-5.32,9.45-4.77,2.22-3.71.48-5.11-1.07-8.44-.4-5.22,1.05-7.57,5.69-13.37,5.45.64,9.08-16.43,5.13-23.67,8-10.47,4.16-20.53,9.37-30.95,13.67q-41.06,17-83.55,29.87c-15.61,4.75-182.12,51.24-185.85,39.63-.82-2.56,77.69-24.29,86.52-24.81,2.5-.15,9.61,1.92,10.73,1.5,6.53-2.45-.51-2.39,1.83-4.25,4.59-3.67,11.91-6.71,19.79-8.79,10.23-2.7,13.92-7.14,22.08-12.64,3-2,6.82-2.5,10.15-3.87,1.94-.8,5.17.73,6.95-.49.95-.65,1-3.1,1.77-3.52,4.09-2.29,6.41-6,12.51-7.42,3.71-.86,9.62.29,12.93-1.79s-.6-5.2,1.67-7.15c3.14-2.68,7.51-3.85,11.66-4.7,3.25-.66,8.88.39,11.69-.88,8-3.61-.1-2,4.59-5.65,6.06-4.74,11.89-3.58,18.69-5.23,5.46-1.33,6-2.55,11.17-5.75,8.68-5.39,13.55-.9,21.53-3.6,2-.68,1.34-5.34,3.84-6.34,5.34-2.15,11.08,2.19,15.3,1.25,5.54-1.23,7.35-5.33,15.69-5.8,6.43-.36,6.48-.44,9.38-1.55.25-.09,3.87-4,5.83-4.87,5.44-2.41,11.48.37,17.07-.85,4.12-.9,6.85-3.06,10.94-4.82,7.51-3.22,15.5-5.4,23.72-7.7,5.07-1.42,14.91,1.43,18.23-.6-3.37-5.16,14.38-8,17.12-9,2.19-.78,21.87-5.71,12.5-.43C483.69,221.18,500.77,214.84,497.6,219.6ZM266.41,291.16c.35,1.5,50,3.15,53.72.82-5.21-4.67-52.72-9.22-58.83-4C263.43,289.75,265,288.42,266.41,291.16ZM232.24,301.8c1.09,4,59.61,1.26,59.7,1C279.57,295.51,246,296.41,232.24,301.8Zm76.55-21.45s28.25,3.69,30,3.56c-5.4-6.61-42.19-11.47-49.84-8.27C293.34,282.92,301.42,277.57,308.79,280.35Zm49.33-5.05c.59-3.21-43.05-13.48-43.93-8.72C328.52,272,342.87,273.59,358.12,275.3ZM211.53,314.54c6.73,6.16,36.59-1.06,45.47-2.2C257,311.35,215,309,211.53,314.54Zm-16.2,11.32c4.85,1,37.55-2.17,37.26-5C232.28,317.86,199.24,324.43,195.33,325.86ZM369.91,257c2,.74,17.9,5.82,18.17,4.41.57-3-22.58-9.93-24.95-8.13C361,254.9,369.21,255.76,369.91,257Zm-15.14,4.49c-2.12-2.12-11.15-3.8-13.94-2.8,2.72,3.44,20.38,10.19,25.24,9.36C364.11,264.94,358.09,263,354.77,261.52Zm51.4-9.42c-.9-.35-18.33-6.4-17.38-3C389.34,251.09,406.55,255.14,406.17,252.1Zm78.26-24.78c-.53-2.06-20.75,5.54-19.87,12C470,237.9,478.68,230,484.43,227.32ZM194.24,331.8c-1.76-2.48-14.58-3.22-14.36-1.1C180.21,333.77,191.68,332.23,194.24,331.8Z"></path> <path class="cls-1" d="M192.53,358.66c3.3-5,26.78-12,33.06-15.21,7.68-3.93,29.26-23.4,36.55-22.21-4,11.48-26.47,22.15-36.81,27.55-7.58,3.95-16,8.86-24.12,11.39-1.83.56-9,4.84-9.89,1.5C191.18,361.15,191.79,358.18,192.53,358.66Z"></path> <path class="cls-1" d="M271.84,326.47c.43-.82,7.69-10.89,10-8.09,3.55,4.23-24.84,24.29-29.15,27.37-2.88,2.05-30.16,19.64-25.65,9.55-.42.95,16.14-8.52,17.32-9.36C253.47,339.55,264,334.39,271.84,326.47Z"></path> <path class="cls-1" d="M289,343.48c4.37-4.2,39.93-43.59,41-42,2.5,3.87-24.52,29.39-27.26,32.61-4.51,5.29-7.35,12.08-15.11,13.09S287.87,336.91,289,343.48Z"></path> <path class="cls-1" d="M257.73,349.54c12.36,6.64,38.56-40.5,50.28-40.72-1.61,8.66-18.13,21.94-24.61,27.73-5.28,4.73-12.32,13.62-18.45,16.33C261.07,354.6,252.07,356.19,257.73,349.54Z"></path> <path class="cls-1" d="M314,335.14c2.76.07,11.09-5.41,11.9-4.13,1.61,2.54-16.17,11.34-17.29,5.82-.55-2.72,16.92-16.78,19.72-20,2-2.38,19.73-26.29,21-24.1C353.84,300.91,313.42,334.11,314,335.14Z"></path> <path class="cls-1" d="M162.67,357.11c5-2.13,50.89-20.37,52.12-18.68C221,346.9,161.59,359.54,162.67,357.11Z"></path> <path class="cls-1" d="M335.89,326.75c3.8.83,5.21-4,9.06-2.91-.81,2.22-7.36,7.61-10,6.65-5.39-1.94,1.41-5.95,2.78-8.29,1.85-3.17,22.18-32.46,23.8-30.15C366.85,299.66,335,323.42,335.89,326.75Z"></path> <path class="cls-1" d="M381.41,285c-6.07,6.48-9.43,15.17-15,22.15-.86,1.09-15,14.56-15.41,8.65.13,1.88,15.34-16.41,15.88-17.18,2.43-3.43,5.27-8.23,8.45-10.86C375,288,384.45,280.17,381.41,285Z"></path> <path class="cls-1" d="M374.52,308.13c2.46-3.7,19.25-33.36,22.65-33.24C402.35,275.07,374.74,314.64,374.52,308.13Z"></path> <path class="cls-1" d="M412,276.72c-.95.77-12.46,23.46-15,18.2-1.43-3,13.33-22.62,14.75-22.14A3,3,0,0,1,412,276.72Z"></path> <path class="cls-1" d="M156.42,357.42c-1.93,1.1-23.37,6.84-24.21,1.22C132.15,358.28,160.75,350.82,156.42,357.42Z"></path> <path class="cls-1" d="M415.77,279.41c3-1.9,12.28-20.34,13.25-19.46C437.55,267.73,416.12,285.07,415.77,279.41Z"></path> <path class="cls-1" d="M446.76,251.47c-.84,1.42-4.49,11.21-4.86,11.22-4.33.16-3.85-4.5-2.61-8.23.43-1.3,4.69-8.47,7.25-6.62C447.77,248.72,447.54,251.9,446.76,251.47Z"></path> <path class="cls-1" d="M266.41,291.16c-1.51-2.88-3-1.45-5.11-3.2,6.11-5.2,53.61-.65,58.83,4C316,294.55,266.77,292.71,266.41,291.16Z"></path> <path class="cls-1" d="M232.24,301.8c13.66-5.35,47.27-6.32,59.7,1C291.85,303.06,233.33,305.78,232.24,301.8Z"></path> <path class="cls-1" d="M308.79,280.35c-7.35-2.78-15.49,2.51-19.84-4.71,7.77-3.25,44.48,1.71,49.84,8.27C337,284,308.78,280.4,308.79,280.35Z"></path> <path class="cls-1" d="M358.12,275.3c-15.3-1.72-29.54-3.27-43.93-8.72C315.07,261.81,358.72,272,358.12,275.3Z"></path> <path class="cls-1" d="M211.53,314.54c3.59-5.67,45.5-3.09,45.47-2.2C248.16,313.48,218.25,320.69,211.53,314.54Z"></path> <path class="cls-1" d="M195.33,325.86c4-1.46,36.94-8,37.26-5S200.34,326.9,195.33,325.86Z"></path> <path class="cls-1" d="M369.91,257c-.7-1.27-8.87-2.13-6.78-3.72,2.54-1.93,25.49,5.32,24.95,8.13C387.79,263,371.27,257.52,369.91,257Z"></path> <path class="cls-1" d="M354.77,261.52c3.32,1.52,9.34,3.42,11.3,6.56-4.82.82-22.62-6-25.24-9.36C343.3,257.84,352.63,259.37,354.77,261.52Z"></path> <path class="cls-1" d="M406.17,252.1c.52,4.1-17.13-2.08-17.38-3C387.79,245.53,404.85,251.59,406.17,252.1Z"></path> <path class="cls-1" d="M484.43,227.32c-5.89,2.76-14.19,10.51-19.87,12C463.68,232.86,483.9,225.26,484.43,227.32Z"></path> <path class="cls-1" d="M194.24,331.8c-2.44.41-14.06,1.64-14.36-1.1C179.57,327.79,192.72,329.66,194.24,331.8Z"></path> <path class="cls-1" d="M501.68,221.45c-4.77,14.77-7.47,30.35-11.08,45.4-1.64,6.84-15.21,49-15.74,48.25-5.34-7.8,4.23-23.5-1.28-31.42-4.71,3.51-13.45,15-15.32,21.08-2.52,8.19,3.41,18.53-1.78,25.07-2.26,2.84-7.1-1.1-10.18,3.34-4.66,6.7.65,11.43-.54,17.36-.45,2.25,2.74,16.67-3.69,7.33-4.09,4.18-7.34,3.66-10.77,7.71-5.4,6.35-3.73,14.27-11.1,19.6,9.71,10.43-15.19,22.2-21.27,32.72-8.8,15.2-16.06,31.31-24.65,46.66Q340.44,525,300.81,582C286.28,602.9,127,821.05,111.05,810.55c-3.53-2.32,71.73-105,82.08-114.15,2.94-2.61,13.72-7,14.68-8.6,5.63-9.31-3-2.4-1.93-6.93,2.06-8.93,8.08-19.73,15.73-29.91,9.92-13.21,10.11-22.18,14.75-36.8,1.7-5.35,5.93-9.66,8.68-14.57,1.59-2.84,7.07-4.11,8.07-7.33.53-1.71-1.79-4.76-1.28-6,2.78-6.76,2-13.51,8.1-21.17,3.71-4.65,12.12-9,14.15-14.72s-5.85-5.75-5-10.32c1.22-6.31,5.45-12,9.72-17,3.35-4,11.3-8.15,13.52-12.42,6.3-12.15-2.08-2.32.1-11.34,2.8-11.64,11.11-15.88,17.85-24.5,5.41-6.91,4.89-8.92,8.09-17.83,5.39-15,15.8-14.24,23-25.28,1.79-2.75-3.6-7.78-1.5-11.43,4.47-7.8,15.79-8.09,20.06-13.33,5.61-6.87,3.8-13.61,13.61-22.28,7.56-6.67,7.54-6.82,10-11,.21-.37.83-8.63,2.38-11.59,4.33-8.22,14.5-10.69,20.18-17.6,4.18-5.1,5.42-10.38,8.73-16.48,6.07-11.21,13.77-21.62,21.62-32.39,4.84-6.64,19.75-12.74,21.84-18.43-9.21-3,9.8-23.73,12.21-27.57,1.93-3.09,21.3-28.18,15-12.66C486.11,236.88,500.89,212.59,501.68,221.45ZM287.49,532.88c1.9,1.48,64.62-44.69,66.93-51.15-11-.61-73.95,40-76.37,52.21C282.45,534.06,283,530.94,287.49,532.88ZM255.9,579c5.25,3.78,74.61-56.33,74.45-56.76C308,525.4,267.56,559.05,255.9,579ZM329,478.61c0,.06,38.39-22.95,40.41-24.8-13.14-2.8-63.19,27-69.47,38.31C312.53,496.72,317.22,482.36,329,478.61Zm55.75-54c-2.44-4.48-66.24,25.39-62.65,32C345.11,449.3,364.32,437.3,384.78,424.58Zm-141.85,190c14.35,1,44-36.8,53.82-46.81C295.81,566.54,241.81,604.43,242.93,614.58Zm-8.8,29.49c7-3.48,44.08-39.07,41-42.21C271.74,598.49,237.53,638.54,234.13,644.07ZM381.32,390.91c3.25-1.09,27.76-10.29,26.7-12.27-2.23-4.18-37.56,9.84-38.71,14.33C368.3,396.93,379.22,390,381.32,390.91ZM367.1,411.07c-4.69-.53-17.45,6.2-19.9,10.12,6.72,1.55,35.09-7.39,40.26-13.12C382,406.15,372.68,409.7,367.1,411.07Zm54-61.35c-1.45.45-28.87,10-24.34,13.23C399.4,364.82,424.56,353.05,421.11,349.72Zm71.94-106.09c-2.67-2-20.08,26.87-12.67,33.84C485.67,270.54,488.63,252.49,493.05,243.63ZM238.63,652.35c-4.6-1.3-21.11,10.25-18.75,12.6C223.3,668.37,235.89,655.36,238.63,652.35Z"></path> <path class="cls-1" d="M262.93,686.7c-.82-9.24,21.16-40.59,25.73-50.6,5.59-12.23,13-56.85,23.15-62.49,6.32,17.89-10.79,52.65-18.21,69.24-5.44,12.17-11,26.28-18.49,37.26-1.7,2.47-6.3,14.61-10.69,11.43C263.72,691,261.55,686.82,262.93,686.7Z"></path> <path class="cls-1" d="M328.89,570.56c-.26-1.41-1.23-20.7,4.39-19.58,8.53,1.7-6.68,53.67-9,61.59-1.52,5.3-17.81,53.17-22.18,36.51.42,1.57,11.48-26,12.12-28.19C319.16,604.3,327,587.81,328.89,570.56Z"></path> <path class="cls-1" d="M366.76,574.59c1.24-9.35,6.27-91.78,9.12-90.84,6.88,2.28-1.28,59.56-1.49,66.13-.35,10.82,2.84,21.83-5.72,30.6S358.89,567.7,366.76,574.59Z"></path> <path class="cls-1" d="M334.21,612.32c21.75-3.93,7.64-86.7,21.84-98.33,6.55,12.1-.73,44.28-3,57.62-1.86,10.88-1.78,28.53-6.65,37.76C343.29,615.23,333.8,625.9,334.21,612.32Z"></path> <path class="cls-1" d="M389.27,540.23c3.45-2.59,8.33-17.34,10.58-16.57,4.48,1.52-8.76,29.49-15.56,23.86-3.35-2.78,4.32-36.84,4.58-43.51.19-4.88-1.57-51.13,2.1-49.66C404.7,459.89,387.59,539.5,389.27,540.23Z"></path> <path class="cls-1" d="M224.67,713.79c4-7.41,42.58-74.17,45.78-73.31C286.39,644.78,225.72,717.79,224.67,713.79Z"></path> <path class="cls-1" d="M408,508.74c5.48-2.68,2.5-9.88,8.28-12.32,1.19,3.47-1.58,16.38-5.78,17.8-8.55,2.86-4.11-8.61-4.73-12.79-.84-5.64-4.62-61-.35-59.78C419.48,445.74,403.62,505.57,408,508.74Z"></path> <path class="cls-1" d="M422.92,413.72c-1.09,13.77,3.32,27.6,3.39,41.45,0,2.17-4.17,32.28-10.46,25.48,2,2.16,2.74-34.85,2.66-36.31-.39-6.53-1.62-15.12-.29-21.42C418.05,423.72,422,405,422.92,413.72Z"></path> <path class="cls-1" d="M437.24,448.61c-.61-6.89-9.11-59.27-4.8-62.43C439,381.37,443.91,456.3,437.24,448.61Z"></path> <path class="cls-1" d="M452.43,374.05c-.4,1.86,7.73,40.64-.55,36.7-4.67-2.21-5.85-40.45-3.63-41.24C450.9,370.08,452.29,371.6,452.43,374.05Z"></path> <path class="cls-1" d="M217.27,720.23c-1.29,3.21-22,31-28.61,25C188.25,744.83,216.12,708,217.27,720.23Z"></path> <path class="cls-1" d="M459.78,373.63c1.75-5.18-4.9-36.66-2.84-36.53C475.09,338.28,465.77,380.17,459.78,373.63Z"></path> <path class="cls-1" d="M470.43,309.57c.36,2.54,5.5,18,5.06,18.37-5.17,4.38-9.15-1.75-11.3-7.48-.75-2-2.56-14.87,2.41-15.11C469,305.24,471.82,309.33,470.43,309.57Z"></path> <path class="cls-1" d="M287.49,532.88c-4.68-2-5.16,1.17-9.44,1.06,2.42-12.25,65.36-52.82,76.37-52.21C351.87,488.87,289.47,534.42,287.49,532.88Z"></path> <path class="cls-1" d="M255.9,579c11.56-19.77,52-53.58,74.45-56.76C330.51,522.66,261.15,582.77,255.9,579Z"></path> <path class="cls-1" d="M329,478.61c-11.78,3.74-16.59,18.07-29.06,13.51,6.37-11.49,56.44-41.08,69.47-38.31C367.42,455.66,329.06,478.67,329,478.61Z"></path> <path class="cls-1" d="M384.78,424.58c-20.52,12.76-39.58,24.69-62.65,32C318.53,450,382.3,420,384.78,424.58Z"></path> <path class="cls-1" d="M242.93,614.58c-1.15-10.38,53-47.92,53.82-46.81C287,577.74,257.25,615.54,242.93,614.58Z"></path> <path class="cls-1" d="M234.13,644.07c3.46-5.64,37.58-45.61,41-42.21S241.32,640.48,234.13,644.07Z"></path> <path class="cls-1" d="M381.32,390.91c-2.11-.87-13,6-12,2.06,1.23-4.82,36.61-18.26,38.71-14.33C409.15,380.76,383.48,390.18,381.32,390.91Z"></path> <path class="cls-1" d="M367.1,411.07c5.58-1.37,14.86-4.92,20.36-3-5.13,5.69-33.78,14.62-40.26,13.12C349.37,417.72,362.36,410.53,367.1,411.07Z"></path> <path class="cls-1" d="M421.11,349.72c4.66,4.49-23.13,14.09-24.34,13.23C392,359.57,419,350.38,421.11,349.72Z"></path> <path class="cls-1" d="M493.05,243.63c-4.53,9.06-7.12,26.56-12.67,33.84C473,270.5,490.38,241.63,493.05,243.63Z"></path> <path class="cls-1" d="M238.63,652.35C236,655.22,222.93,668,219.88,665,216.63,661.71,234.65,651.23,238.63,652.35Z"></path> <path class="cls-1" d="M506.75,220.07c3.61,16.61,9.55,32.85,14.37,49.09,2.18,7.38,12.56,54.82,11.66,54.38-9.06-4.43-8.81-24.59-18.09-29-2.39,5.92-4.16,21.63-2.59,28.43,2.12,9.14,13.08,15.65,11.88,24.71-.52,3.93-7.05,2.88-7.46,8.8-.63,8.91,6.75,10.45,8.86,16.72.8,2.38,11.46,14.26.59,9-1.48,6.23-4.71,7.53-5.66,13.25-1.49,9,4.3,15.57.46,24.7,14.46,4.5-1.86,29.41-1.74,42.73.19,19.26,2.25,38.53,2.7,57.8q1.77,76-3.62,151.78c-2,27.85-29.38,322.42-49.58,321.32-4.46-.25,8.75-139,13.22-153.45,1.27-4.09,8.71-14.2,8.73-16.25.11-11.93-4-.63-5.49-5.5-2.94-9.58-3.28-23.14-1.8-37,1.92-18-2.75-26.59-6.39-43-1.34-6,.19-12.43.05-18.59-.08-3.58,4.22-7.81,3.4-11.41-.44-1.91-4.19-3.52-4.4-5-1.1-7.93-5.47-13.89-4-24.52.88-6.45,6.19-15.21,4.95-21.76-1.22-6.4-8.42-2.21-10.07-7-2.29-6.65-1.49-14.35-.33-21.5.92-5.6,5.9-14,5.62-19.23-.81-15-3.14-1-6-10.79-3.71-12.57,1.56-21.18,3.06-33.07,1.2-9.53-.37-11.15-2.25-21.34-3.16-17.17,6.71-22.23,7.28-36.63.15-3.59-7.46-5.39-7.52-10-.13-9.85,10-16.39,11.08-23.71,1.4-9.6-3.87-15,.39-28.61,3.28-10.5,3.18-10.63,3.19-15.94,0-.47-3.89-8.62-4.06-12.29C476.65,407,484.57,399,486,389.33c1.07-7.14-.65-12.82-.93-20.43-.51-14,.89-28.07,2.24-42.61.83-9,11.11-23,9.94-29.52-10,2.25-3.85-27.89-3.74-32.86.1-4,4.22-38.45,6.81-20.26C500.89,243.27,501.26,212.1,506.75,220.07ZM479.56,633.31c2.53.35,34.73-78,33.35-85.43-10.34,5.51-45.77,78.73-41.37,91.65C475.6,637.21,474.45,633.94,479.56,633.31Zm-3.92,61.11c6.81.68,37.56-94.57,37.18-94.89C494.16,614.9,475.51,669.1,475.64,694.42ZM488.12,559c.07,0,22.59-43,23.43-45.81-13.47,4.61-43,60.49-42.59,74.67C482.87,585.23,479.4,569.05,488.12,559Zm21.65-82c-4.64-2.89-46.61,60.67-39.77,65C487,522.33,498,500.35,509.77,477ZM483,735.29c13.58-7,20.23-59.17,23.77-74.07C505.25,660.57,476.52,726.31,483,735.29Zm7.87,32.78c4.47-7.14,19.07-61.36,14.55-62.6C500.55,704.13,491,761,490.87,768.07Zm-2.39-321c2.37-2.83,19.72-25.09,17.69-26.38-4.28-2.72-28.88,30.08-27.5,35C479.88,459.93,486.1,447.37,488.48,447Zm-2.08,27c-4.56,2.09-12.54,15.51-12.65,20.58,6.95-2.24,27.95-26.4,29.56-34.68C497.28,461.11,490.74,469.6,486.4,474ZM502.51,386c-1.08,1.22-20.88,25.43-15,26C490.88,412.34,507.44,387.28,502.51,386Zm8.33-140.22c-3.51-.41-3.8,36.55,6.69,39.05C518.61,275.38,511.59,256.65,510.84,245.82ZM499.43,773.43c-4.89,1.31-13.69,21.37-10.28,22.29C494.11,797.07,498.56,777.79,499.43,773.43Z"></path> <path class="cls-1" d="M540,792.5c-5.72-8.3-2.6-50.13-3.83-62.13-1.5-14.66-18.78-61-12.59-72,15.38,13.44,18.53,55.8,20.71,75.61,1.61,14.53,4.19,30.94,3.24,45.5-.21,3.27,2.13,17.32-3.57,16.73C543.09,796.17,538.85,793.38,540,792.5Z"></path> <path class="cls-1" d="M537.52,646.09c-1-1.19-12.28-18.92-6.55-21,8.68-3.1,22.82,54.51,25,63.26,1.46,5.86,12.43,60.18-.52,46.82,1.22,1.26-3.57-31-4.15-33.38C546.83,683.41,545.12,663.43,537.52,646.09Z"></path> <path class="cls-1" d="M574.15,629c-3.91-9.54-43.72-90.36-40.62-91,7.49-1.64,30.9,57.09,34.25,63.43,5.51,10.43,14.34,19.1,11.27,32.13C576,646.35,563.27,626.79,574.15,629Z"></path> <path class="cls-1" d="M564.84,682.67c17.68-15.74-39.73-86.29-33.07-105.16,12.47,7.84,23.18,42.33,28.28,56.21,4.17,11.33,13.75,28,14.29,39.43C574.68,680.41,571.78,695.76,564.84,682.67Z"></path> <path class="cls-1" d="M576.12,584c1.75-4.37-1.75-21,.71-21.54,4.89-1,7.9,32.76-1.31,31.19-4.55-.77-15.91-37.27-19.26-43.72-2.46-4.72-29-47.54-24.83-48.17C546.9,499.4,574.2,584.22,576.12,584Z"></path> <path class="cls-1" d="M519.81,839.3c-.34-9.23-1.19-93.76,2.18-94.71C538.81,739.85,522.92,842.51,519.81,839.3Z"></path> <path class="cls-1" d="M576.23,543.81c3.54-5.56-3.06-10.73.89-16.24,3,2.63,7.39,16.38,4.32,20-6.23,7.44-8.37-5.88-11.19-9.49-3.8-4.88-37.06-55.21-32.5-56.4C552.73,477.83,570.51,543.24,576.23,543.81Z"></path> <path class="cls-1" d="M538.62,445.62c6.43,13.64,17.89,24.29,25.41,37.37,1.17,2,13.58,32.86,4.2,29.89,3,.94-16.27-34.5-17.14-35.84-3.87-6-9.61-13.42-11.79-20.11C539.58,457.78,533,437.84,538.62,445.62Z"></path> <path class="cls-1" d="M570.44,470.73c-4.27-6.19-40.2-51.07-38-56.45C535.82,406.12,580.65,474.31,570.44,470.73Z"></path> <path class="cls-1" d="M544.11,391.75c.64,2,28.92,34.19,19.26,35.05-5.44.48-27.11-35.06-25.51-37Q541.94,388.38,544.11,391.75Z"></path> <path class="cls-1" d="M516.55,849.49C517.1,853.24,513.19,891,504,889,503.39,888.82,508.91,838.55,516.55,849.49Z"></path> <path class="cls-1" d="M550.57,387.28c-1.19-5.87-24.2-32-22.26-33C545.47,345.35,559.55,390.16,550.57,387.28Z"></path> <path class="cls-1" d="M525.77,320.75c1.69,2.2,14.69,14,14.49,14.59-2.34,7-9.27,3.41-14.31-.83-1.77-1.48-10.33-12.66-5.94-15.63C522.12,317.46,526.9,319.76,525.77,320.75Z"></path> <path class="cls-1" d="M479.56,633.31c-5.37.66-4.06,4-8,6.22-4.4-12.92,31-86.14,41.37-91.65C514.44,556.05,482.18,633.67,479.56,633.31Z"></path> <path class="cls-1" d="M475.64,694.42c-.13-25.1,18.44-79.45,37.18-94.89C513.2,599.85,482.45,695.1,475.64,694.42Z"></path> <path class="cls-1" d="M488.12,559c-8.69,10.06-5.36,26.29-19.16,28.86-.39-14.4,29.23-70.09,42.59-74.67C510.71,516,488.19,559,488.12,559Z"></path> <path class="cls-1" d="M509.77,477C498,500.42,487,522.25,470,541.94,463.14,537.65,505,474,509.77,477Z"></path> <path class="cls-1" d="M483,735.29c-6.63-9.19,22.4-74.65,23.77-74.07C503.24,676.06,496.55,728.28,483,735.29Z"></path> <path class="cls-1" d="M490.87,768.07c.12-7.25,9.64-64,14.55-62.6C510.11,706.76,495.49,760.7,490.87,768.07Z"></path> <path class="cls-1" d="M488.48,447c-2.38.34-8.6,12.9-9.81,8.59-1.48-5.24,23.48-37.53,27.5-35C508.34,422,490.06,445.15,488.48,447Z"></path> <path class="cls-1" d="M486.4,474c4.34-4.38,10.88-12.87,16.91-14.1-1.6,8.22-22.87,32.52-29.56,34.68C473.85,490.08,481.8,476.09,486.4,474Z"></path> <path class="cls-1" d="M502.51,386c6.65,1.67-13.46,26.13-15,26C481.35,411.44,500.93,387.84,502.51,386Z"></path> <path class="cls-1" d="M510.84,245.82c.76,11.09,7.83,29.08,6.69,39.05C507,282.37,507.33,245.41,510.84,245.82Z"></path> <path class="cls-1" d="M499.43,773.43c-.83,4.15-5.86,23.49-10.28,22.29C484.45,794.45,495.2,774.56,499.43,773.43Z"></path> <path class="cls-1" d="M508.1,220c11.44,10.39,24.46,19.25,36.62,28.71,5.53,4.3,38.25,33.95,37.33,34.11-9.21,1.61-19.57-13.51-28.95-11.78,1.29,5.69,8.15,18.32,12.91,22.53,6.4,5.65,18.14,4.55,22,11.93,1.66,3.21-3.85,6-1.08,10.58,4.19,7,10.61,4.12,15.5,7.64,1.85,1.33,16.18,4.39,5.14,6.35,2.14,5.42.37,8.14,2.64,12.91,3.58,7.49,11.42,9.25,13.27,18.11,13.35-4.48,14,22.87,21,32.7,10.23,14.21,21.88,27.42,32.31,41.5q41.1,55.5,76.67,114.77c13.1,21.76,146.4,255.55,130.46,265.67-3.52,2.23-66.1-108.07-70.26-121.21-1.17-3.73-.8-15.27-1.86-16.81-6.16-8.92-3.37,1.7-7.06-1.11-7.24-5.53-14.59-15.43-20.73-26.54-8-14.41-16-18.27-27.36-28.49-4.16-3.74-6.35-9.34-9.69-13.85-1.93-2.61-.87-8.08-3.39-10.32-1.33-1.18-5-.34-5.94-1.31-5-5.3-11.43-7.36-15.89-16-2.72-5.27-3.26-14.66-7.63-18.85s-7.56,2.92-11.34.23c-5.21-3.7-8.64-9.86-11.49-15.8-2.24-4.66-2.83-13.57-5.8-17.33-8.46-10.71-2.93.92-10.22-4.76-9.4-7.34-9.9-16.59-15-26.24-4.08-7.73-6.11-8.09-12.88-14.65-11.39-11.05-6.53-20.15-13.63-31.17-1.77-2.74-8.5,0-11-3.35-5.25-7.25-1-17.6-4-23.62-4-7.9-10.78-9.05-14.68-21.48-3-9.58-3.14-9.62-5.91-13.58-.24-.35-7.47-4.3-9.52-6.93-5.7-7.3-3.84-17.5-7.81-25.48-2.93-5.88-7.2-9.18-11.4-14.68-7.7-10.11-14-21.35-20.6-32.88-4.06-7.12-3.58-23.1-7.88-27.33-6.43,7.08-17.54-18.64-20-22.4-2-3-16.92-30.86-5.44-18.74C515.8,240.4,499.76,217,508.1,220ZM703.69,541.85c2.11-1.11-14.42-76.81-19.34-81.55-5,9.69,6.39,83.29,16.5,90.52C702.73,546.89,700.14,545.08,703.69,541.85Zm29,47.54c5.53-3.18-20.94-90.62-21.39-90.65C705.17,520.26,719.35,570.65,732.7,589.39ZM671.3,482c.07,0-5.3-44.15-6.17-46.74-7.82,10.72-1,68.22,6.7,78.56C681.05,504.32,670,494.17,671.3,482Zm-26.44-72.65c-5,.36-3.7,70.33,3.75,69.81C651.26,455.35,648.13,433.05,644.86,409.31ZM759.68,615.79c6.65-12.57-15.58-54.93-20.69-67.92C737.5,548.2,750.05,612.62,759.68,615.79Zm23.15,20.1c-.34-7.73-17.62-55.93-21.71-54.41C756.72,583.12,779.19,630.53,782.83,635.89ZM613,398.57c.32-3.39,1.86-29.33-.35-29.19-4.68.3-6.22,38-2.61,40.88C613.2,412.81,611.36,400.11,613,398.57Zm12.52,21.15c-2.37,4-1.41,18.32,1.15,22.15,4.11-5.43,7.44-34.75,4.34-41.78C627.05,404.27,626.52,414.11,625.51,419.72Zm-33.77-74.08c-.18,1.49-2.57,30.21,2.17,27.45C596.66,371.48,596.14,343.89,591.74,345.64Zm-67-108.73c-2.88,1.6,16.24,29.23,25.53,25.4C546.07,254.67,530.93,244.56,524.69,236.91ZM792.13,635.24c-3,3.62.78,23.3,3.86,22.14C800.46,655.69,793.76,639,792.13,635.24Z"></path> <path class="cls-1" d="M833,627.43c-8.69-3.07-28.21-35.85-35.43-44.1-8.81-10.09-46.21-35.19-47.23-46.67,18.73,1.67,43.29,31.45,55.32,45,8.82,9.92,19.38,20.72,26.28,32.06,1.55,2.55,10.68,11.72,6,14.37C837.24,628.51,832.55,628.72,833,627.43Z"></path> <path class="cls-1" d="M754.46,520c-1.39-.34-19.24-7.42-16-12,5-7,45.88,28.16,52.13,33.48,4.18,3.56,40.94,38,24.11,35.08,1.59.28-18.93-21.1-20.63-22.56C781.07,542.67,769.32,528.75,754.46,520Z"></path> <path class="cls-1" d="M773.35,487.41c-8-5-80.53-43.49-78.53-45.68,4.83-5.27,53.37,25.71,59.24,28.6,9.65,4.78,20.9,6.43,25.38,17.78S763.94,491.68,773.35,487.41Z"></path> <path class="cls-1" d="M794.38,532.37c5.21-21.27-75.37-42.63-80.18-60.26,13.58-.92,39.77,18.91,50.92,26.47,9.1,6.16,25.1,13.36,31.5,21.57C800.68,525.36,806.51,538.34,794.38,532.37Z"></path> <path class="cls-1" d="M751.31,452.91c-.95-4.18-12.34-14.67-10.74-16.39,3.19-3.41,23.16,20.07,15.34,23.89-3.87,1.89-31.6-19.08-37.53-22.06-4.34-2.18-46.9-19.66-44.09-22.36C684.82,405.87,750,454.13,751.31,452.91Z"></path> <path class="cls-1" d="M842.11,673.17c-5.09-6.68-50-69-47.91-71.58C804.51,589,846.15,673.86,842.11,673.17Z"></path> <path class="cls-1" d="M730.37,423c-.22-6.06-7.94-6.33-7.83-12.56,3.63.35,14.2,8.18,13.78,12.56-.84,8.91-9.44.17-13.47-1-5.44-1.57-57.08-21-54.23-24.32C678,386.68,725.72,425.66,730.37,423Z"></path> <path class="cls-1" d="M650.38,370.37c12,6.66,26.31,8.37,38.88,14,2,.88,27.53,17.07,18.84,19.95,2.76-.91-30.43-16.84-31.79-17.36-6.07-2.34-14.33-4.77-19.49-8.57C657.47,378.89,642.06,367.62,650.38,370.37Z"></path> <path class="cls-1" d="M687.72,371.81c-6.49-2.29-57.3-16.19-58.43-21.39C627.58,342.53,697.36,369,687.72,371.81Z"></path> <path class="cls-1" d="M626.36,327.36c1.53,1.13,39.89,9.76,33,15.63-3.88,3.3-39-11.39-38.78-13.72Q623,326,626.36,327.36Z"></path> <path class="cls-1" d="M845,682.5c2.39,2.49,19.18,32.69,11.08,36.15C855.54,718.86,833.42,678.51,845,682.5Z"></path> <path class="cls-1" d="M628.94,320.55c-4-3.72-35.15-10.68-34.2-12.49C603.12,292.14,637.27,317.83,628.94,320.55Z"></path> <path class="cls-1" d="M575.26,284.52c2.44.72,18.5,2.45,18.66,3,1.89,6.48-5.27,7.55-11.32,7.13-2.12-.15-14.48-3.82-12.69-8.4C570.76,284.05,575.6,283.18,575.26,284.52Z"></path> <path class="cls-1" d="M703.69,541.85c-3.73,3.39-1,5.15-2.84,9-10.11-7.23-21.48-80.83-16.5-90.52C689.78,465.54,705.88,540.7,703.69,541.85Z"></path> <path class="cls-1" d="M732.7,589.39c-13.23-18.58-27.56-69-21.39-90.65C711.76,498.77,738.23,586.21,732.7,589.39Z"></path> <path class="cls-1" d="M671.3,482c-1.35,12.18,9.68,22.44.53,31.82-7.83-10.49-14.46-67.93-6.7-78.56C666,437.81,671.37,482,671.3,482Z"></path> <path class="cls-1" d="M644.86,409.31c3.28,23.81,6.41,45.94,3.75,69.81C641.15,479.64,639.72,409.68,644.86,409.31Z"></path> <path class="cls-1" d="M759.68,615.79c-9.85-3.25-22-67.62-20.69-67.92C744.08,560.8,766.32,603.24,759.68,615.79Z"></path> <path class="cls-1" d="M782.83,635.89c-3.71-5.45-26.15-52.75-21.71-54.41C765.37,579.9,782.48,627.91,782.83,635.89Z"></path> <path class="cls-1" d="M613,398.57c-1.63,1.54.21,14.24-3,11.69-3.87-3.09-1.79-40.6,2.61-40.88C615,369.23,613.21,396.32,613,398.57Z"></path> <path class="cls-1" d="M625.51,419.72c1-5.61,1.54-15.45,5.49-19.63,3.08,7-.38,36.55-4.34,41.78C624.39,438.49,623.12,423.79,625.51,419.72Z"></path> <path class="cls-1" d="M591.74,345.64c5.94-2.36,3.44,26.71,2.17,27.45C589,376,591.48,347.83,591.74,345.64Z"></path> <path class="cls-1" d="M524.69,236.91c6.39,7.83,21.18,17.38,25.53,25.4C540.93,266.14,521.81,238.51,524.69,236.91Z"></path> <path class="cls-1" d="M792.13,635.24c1.55,3.53,7.84,20.63,3.86,22.14C791.75,659,789.51,638.37,792.13,635.24Z"></path> <path class="cls-1" d="M510.66,218.69c10.09,1.52,20.5,1.65,30.66,2.42,4.61.35,33.44,4.68,33,5.09-4.54,4.18-15.72-.3-20.31,4,2.76,2.62,11.11,7,15.27,7.57,5.58.77,11.71-4,16.49-1.41,2.07,1.14,0,4.61,3.2,6.12,4.83,2.27,7.37-1.57,11.35-1.42,1.51.06,10.56-3.42,5.14,1.6,3.14,2.17,3.13,4.28,6.11,6,4.68,2.78,9.66.92,13.88,5.05,5.8-7.21,16,7.38,23.44,10.17,10.78,4,22,7,32.85,10.9q42.78,15.33,83.84,34.68c15.1,7.09,173.17,85.94,167.95,97.14-1.15,2.47-75.55-34.84-82.58-40.47-2-1.6-5.94-8-7.08-8.44-6.63-2.62-1.26,2.13-4.32,1.93-6-.4-13.65-3.12-21-6.94-9.6-5-15.46-4.16-25.44-5.63-3.65-.53-6.88-2.78-10.35-4-2-.72-3.4-4.07-5.6-4.38-1.16-.16-2.91,1.62-3.77,1.42-4.67-1.08-9,.11-14.59-3-3.4-1.88-7.08-6.77-11-7.48s-3.14,4.29-6.2,4.19c-4.23-.13-8.35-2.24-12.07-4.43-2.91-1.73-6.45-6.34-9.45-7.32-8.54-2.76-1.3,1.55-7.38,1.09-7.86-.6-11.46-5.44-17.76-8.84-5-2.73-6.3-2.19-12.41-3.32-10.3-1.9-10.88-8.57-18.78-12-2-.86-4.7,3.06-7.29,2.11-5.52-2.05-6.86-9.19-10.7-11.37-5-2.86-9.24-1-15.88-6.37-5.1-4.11-5.2-4.09-8.16-5.24-.26-.1-5.69.35-7.78-.34-5.78-1.91-8.42-8.1-13.5-11-3.73-2.14-7.29-2.39-11.6-3.87-7.91-2.71-15.46-6.53-23.26-10.42-4.82-2.4-10.29-11.23-14.21-12-1,6.14-16.43-3.81-19.18-4.94-2.2-.91-20.48-10.66-9.75-8.21C522.28,227,505,220.08,510.66,218.69ZM735,322.91c.77-1.35-35.63-36.43-40.06-37.24.72,7,33.49,42.83,41.71,43.12C736.27,326,734.18,325.93,735,322.91Zm33.2,15.36c1.93-3.71-44.21-41.59-44.47-41.44C728.05,310.69,754,332.9,768.19,338.27Zm-72.72-36.19s-18.82-22-20.23-23.1c-.49,8.61,24,37.32,32,40.15C708.92,310.7,699.11,309.18,695.47,302.08Zm-40.8-29.87c-2.67,2,23.23,39.42,27.18,36.47C674.77,294.86,665,283.9,654.67,272.21Zm138,70.68c-.83-9.2-28.4-24.17-35.91-29.37C756.05,314.23,786.17,344.62,792.66,342.89Zm20.08,2.59c-3-4.06-29.89-24-31.61-21.69C779.27,326.26,808.79,343.88,812.74,345.48ZM633.11,277.82c-1-1.95-9.51-16.56-10.69-15.68-2.49,1.83,10.21,22.8,13.25,23.08C638.35,285.46,632.76,279.24,633.11,277.82Zm14.56,7c.13,3,5.8,10.43,8.6,11.58.33-4.41-8.36-21.49-12.62-24.18C643,275.86,646.21,281.39,647.67,284.79Zm-45.39-28c.44.88,9.44,17.29,11.08,14.09C614.31,269,604.1,254.24,602.28,256.76ZM526,221.91c-1,1.9,19.53,10,23.31,4.6C544.22,223.86,532.18,223.81,526,221.91ZM817.67,341.79c-.38,3,8.81,12.34,10.1,10.61C829.65,349.88,819.91,343.22,817.67,341.79Z"></path> <path class="cls-1" d="M837.55,322.91c-5.93,1.45-28.55-9.3-35.52-11.19-8.52-2.3-38.31-2.49-43-8.35,11-5.81,35.35,1.52,46.9,4.54,8.46,2.22,18.21,4.28,26.11,7.95,1.78.82,10.15,2.51,8.52,5.62C840.3,322,837.77,323.77,837.55,322.91Z"></path> <path class="cls-1" d="M755.31,292.86c-.89.31-13.35,2.88-13.19-.8.25-5.58,35.6-1.2,41-.56,3.6.43,36.4,5.91,26,10.36,1-.42-18.09-4.64-19.57-4.82C778.25,295.61,766.72,292.29,755.31,292.86Z"></path> <path class="cls-1" d="M754.09,268.45c-6.21.16-60.35,5.31-60,3.41.78-4.59,38.87-5.21,43.17-5.74,7.07-.88,13.92-4,20.49.52S750.4,274.14,754.09,268.45Z"></path> <path class="cls-1" d="M781.94,285.26c-4.76-13.39-57.18,3.94-66.19-3.89,7.21-5.37,28.88-4,37.79-3.92,7.27.07,18.74-1.76,25.24.39C782.91,279.21,790.82,284.15,781.94,285.26Z"></path> <path class="cls-1" d="M729.46,257.66c-2-1.92-12.13-3.52-11.86-5,.54-3,20.07,2.56,17.1,7.44-1.46,2.41-24.41,1-28.77,1.5-3.19.38-33.11,6.17-32.52,3.7C675.62,256,729.15,258.8,729.46,257.66Z"></path> <path class="cls-1" d="M859.06,344.42c-5.23-1.8-52.58-19.48-52.34-21.59C807.9,312.29,861.55,343.34,859.06,344.42Z"></path> <path class="cls-1" d="M707.07,249c-2.3-3.2-6.68-.58-8.86-4,2.14-1.11,10.82-.66,12.17,1.87,2.73,5.12-5.19,3.47-7.84,4.29-3.59,1.1-39.23,9.1-38.86,6.27C664.92,248.08,705.45,252.08,707.07,249Z"></path> <path class="cls-1" d="M643.73,249.14c9.07-.7,17.62-4.9,26.63-6.34,1.41-.23,21.43-.63,17.63,4,1.21-1.48-22.94,1.79-23.89,2-4.21.91-9.67,2.55-13.9,2.35C650.74,251.21,638.12,250.63,643.73,249.14Z"></path> <path class="cls-1" d="M665,236.53c-4.42,1.09-37.63,11.77-40.13,9.36C621.06,242.23,669.31,231.52,665,236.53Z"></path> <path class="cls-1" d="M614.94,234.45c1.25.06,25.65-9,23.93-3.36-1,3.18-25.73,7.8-26.47,6.47A3,3,0,0,1,614.94,234.45Z"></path> <path class="cls-1" d="M864,348.45c2.23.5,22.41,10.83,19.16,15.61C882.94,364.36,856.15,350.42,864,348.45Z"></path> <path class="cls-1" d="M613.91,229.84c-3.54-.59-23.35,6.81-23.47,5.49C589.36,223.71,617.56,225.38,613.91,229.84Z"></path> <path class="cls-1" d="M571.16,229.57c1.61-.49,11.15-5.31,11.44-5.07,3.37,2.84-.21,6-3.73,7.92-1.23.68-9.41,3.13-10.07,0C568.49,230.93,570.86,228.72,571.16,229.57Z"></path> <path class="cls-1" d="M735,322.91c-.85,3.18,1.29,3.15,1.65,5.88-8.22-.29-41-36.08-41.71-43.12C699.83,286.56,735.79,321.51,735,322.91Z"></path> <path class="cls-1" d="M768.19,338.27c-14-5.33-40.12-27.52-44.47-41.44C724,296.68,770.12,334.56,768.19,338.27Z"></path> <path class="cls-1" d="M695.47,302.08c3.63,7.08,13.44,8.69,11.73,17.05-8.12-2.87-32.44-31.61-32-40.15C676.65,280.07,695.51,302.05,695.47,302.08Z"></path> <path class="cls-1" d="M654.67,272.21c10.38,11.72,20.07,22.59,27.18,36.47C677.89,311.64,652,274.25,654.67,272.21Z"></path> <path class="cls-1" d="M792.66,342.89c-6.64,1.77-36.54-28.73-35.91-29.37C764.23,318.7,791.83,333.72,792.66,342.89Z"></path> <path class="cls-1" d="M812.74,345.48c-4-1.63-33.48-19.2-31.61-21.69S809.68,341.29,812.74,345.48Z"></path> <path class="cls-1" d="M633.11,277.82c-.35,1.42,5.24,7.64,2.56,7.4-3.26-.3-15.59-21.36-13.25-23.08C623.69,261.2,632.42,276.52,633.11,277.82Z"></path> <path class="cls-1" d="M647.67,284.79c-1.46-3.4-4.7-8.93-4-12.6,4.23,2.67,12.94,19.93,12.62,24.18C653.79,295.35,647.8,287.85,647.67,284.79Z"></path> <path class="cls-1" d="M602.28,256.76c2.45-3.4,11.51,13.24,11.08,14.09C611.64,274.2,602.92,258.05,602.28,256.76Z"></path> <path class="cls-1" d="M526,221.91c6.36,2,18,1.82,23.31,4.6C545.49,231.92,524.94,223.81,526,221.91Z"></path> <path class="cls-1" d="M817.67,341.79c2.13,1.36,11.77,8.37,10.1,10.61C826,354.79,817.34,344.42,817.67,341.79Z"></path> <path class="cls-1" d="M511.84,214.68c6.3-3.46,12.16-7.77,18.15-11.65,2.73-1.76,20.73-11.66,20.67-11.26-.65,4-8.89,6.45-9.51,10.56,2.72.18,9.34-1.1,11.91-2.55,3.46-2,4.7-7,8.55-7.65,1.67-.29,2.08,2.34,4.54,1.77,3.71-.88,3.39-3.9,5.68-5.49.86-.61,4.33-6.18,3.58-1.35,2.72-.21,3.67.86,6.12.51,3.86-.55,5.8-3.59,10-3.26,0-6.1,12.22-3,17.63-4.67,7.82-2.48,15.41-5.67,23.2-8.25q30.74-10.17,62.31-17.57c11.6-2.73,135.14-29,137.28-21.12.47,1.74-57.76,14-64.22,14.1-1.83,0-6.9-1.57-7.74-1.32-4.87,1.45.26,1.61-1.54,2.79-3.52,2.32-9,4.15-14.84,5.31-7.58,1.51-10.48,4.38-16.7,7.82-2.27,1.27-5.09,1.48-7.58,2.31-1.45.47-3.72-.65-5.09.12-.72.4-.89,2-1.46,2.3-3.08,1.42-4.95,3.84-9.47,4.61-2.74.47-7-.47-9.5.82s.18,3.51-1.57,4.74c-2.41,1.71-5.65,2.37-8.71,2.81-2.4.35-6.45-.51-8.56.25-6,2.18,0,1.34-3.62,3.66-4.65,3-8.83,2-13.87,3-4,.73-4.5,1.53-8.41,3.52-6.59,3.36-9.92.21-15.86,1.79-1.48.39-1.23,3.53-3.1,4.13-4,1.28-8-1.79-11.09-1.29-4.09.67-5.6,3.36-11.71,3.43-4.69.05-4.73.11-6.9.76-.19.06-3,2.57-4.48,3.1-4.09,1.46-8.35-.59-12.48.07-3,.48-5.14,1.85-8.2,2.91a150.29,150.29,0,0,1-17.65,4.46c-3.76.8-10.79-1.39-13.3-.13,2.19,3.55-10.87,5-12.91,5.54-1.64.46-16.21,3.19-9.13-.08C522,214,509.3,217.78,511.84,214.68ZM683.7,173.49c-.18-1-36.26-3.58-39.09-2.13,3.57,3.28,37.95,7.73,42.65,4.43C685.79,174.52,684.61,175.37,683.7,173.49Zm25.4-6.13c-.6-2.7-43.35-2.6-43.43-2.41C674.32,170.18,698.8,170.57,709.1,167.36Zm-56.79,12.13s-20.4-3.3-21.68-3.26c3.61,4.59,30.16,8.92,35.89,7C663.68,178.22,657.53,181.57,652.31,179.49Zm-36.18,1.94c-.58,2.14,30.7,10.3,31.57,7.14C637.53,184.51,627.16,183,616.13,181.43Zm108.68-22c-4.61-4.33-26.71-.37-33.23.13C691.51,160.23,722,163,724.81,159.43Zm12.34-7.12c-3.48-.82-27.45.36-27.37,2.25S734.24,153.16,737.15,152.31Zm-130.5,41c-1.45-.55-12.75-4.42-13-3.49-.56,2,16,7.32,17.77,6.18C613,195,607.1,194.2,606.65,193.33Zm11.25-2.56c1.44,1.48,7.93,2.87,10,2.28-1.81-2.39-14.34-7.43-17.92-7C611.26,188.2,615.56,189.65,617.9,190.77Zm-37.9,4.8c.64.26,13,4.83,12.52,2.52C592.21,196.75,579.87,193.52,580,195.57Zm-58.2,14.32c.29,1.4,15.38-3.11,15.05-7.44C532.85,203.22,526.12,208.25,521.8,209.89Zm216.44-61.52c1.16,1.7,10.46,2.58,10.4,1.15C748.55,147.45,740.13,148.15,738.24,148.37Z"></path> <path class="cls-1" d="M740.8,130.41c-2.65,3.23-20.09,7.26-24.83,9.23-5.78,2.4-22.45,14.82-27.7,13.81,3.51-7.58,20.36-14.07,28.15-17.39,5.71-2.43,12.07-5.47,18.13-6.92,1.35-.33,6.78-3,7.27-.72C741.9,128.78,741.31,130.75,740.8,130.41Z"></path> <path class="cls-1" d="M681.47,149.66c-.36.53-6.14,7.07-7.71,5.13-2.38-2.94,19.28-15.56,22.57-17.49,2.2-1.3,22.92-12.29,19.14-5.65.36-.63-12.17,5.24-13.07,5.76C695.48,141.43,687.56,144.58,681.47,149.66Z"></path> <path class="cls-1" d="M669.79,137.75c-3.39,2.69-31.21,28.06-31.88,26.95-1.63-2.66,19.29-19,21.44-21.06,3.55-3.41,5.94-7.88,11.65-8.33S670.3,142.19,669.79,137.75Z"></path> <path class="cls-1" d="M692.86,134.61c-8.68-4.81-30.06,26-38.6,25.82,1.59-5.76,14.27-14.17,19.27-17.87,4.08-3,9.64-8.77,14.23-10.4C690.68,131.12,697.31,130.31,692.86,134.61Z"></path> <path class="cls-1" d="M651.21,142.61c-2-.12-8.34,3.3-8.87,2.42-1.05-1.75,12.33-7.12,12.88-3.39.27,1.84-13.14,10.75-15.34,12.85-1.61,1.53-15.65,17-16.44,15.54C620.5,164.39,651.55,143.32,651.21,142.61Z"></path> <path class="cls-1" d="M762.46,132.32c-3.72,1.28-38.05,12.17-38.87,11C719.5,137.45,763.37,130.72,762.46,132.32Z"></path> <path class="cls-1" d="M634.83,147.59c-2.73-.66-4,2.51-6.74,1.69.69-1.47,5.73-4.88,7.62-4.16,3.83,1.46-1.32,3.94-2.43,5.47-1.5,2.07-17.74,21.11-18.81,19.51C611,164.84,635.33,149.85,634.83,147.59Z"></path> <path class="cls-1" d="M599.64,174.28c4.74-4.17,7.6-9.89,12-14.41.68-.71,11.65-9.32,11.64-5.35,0-1.26-12,10.55-12.4,11-1.94,2.23-4.24,5.36-6.68,7C604.48,172.39,597.19,177.4,599.64,174.28Z"></path> <path class="cls-1" d="M605.79,158.94c-2,2.41-15.65,21.8-18.12,21.62C583.91,180.29,605.94,154.57,605.79,158.94Z"></path> <path class="cls-1" d="M577,178.9c.73-.49,10.22-15.36,11.81-11.76.9,2-10.81,14.77-11.82,14.41A1.89,1.89,0,0,1,577,178.9Z"></path> <path class="cls-1" d="M767,132.3c1.46-.68,17.35-3.9,17.69-.11C784.75,132.43,763.55,136.59,767,132.3Z"></path> <path class="cls-1" d="M574.34,177c-2.24,1.19-9.93,13.28-10.59,12.66C557.91,184.18,574.36,173.18,574.34,177Z"></path> <path class="cls-1" d="M550.42,194.81c.68-.93,3.81-7.39,4.08-7.39,3.16,0,2.58,3.13,1.5,5.6-.38.86-3.83,5.54-5.61,4.23C549.55,196.62,549.87,194.5,550.42,194.81Z"></path> <path class="cls-1" d="M683.7,173.49c.95,2,2.13,1.06,3.56,2.3-4.7,3.3-39.08-1.15-42.65-4.43C647.74,169.76,683.51,172.44,683.7,173.49Z"></path> <path class="cls-1" d="M709.1,167.36c-10.21,3.18-34.74,2.85-43.43-2.41C665.75,164.76,708.5,164.66,709.1,167.36Z"></path> <path class="cls-1" d="M652.31,179.49c5.21,2.08,11.39-1.23,14.21,3.74-5.81,2-32.31-2.45-35.89-7C631.91,176.19,652.32,179.46,652.31,179.49Z"></path> <path class="cls-1" d="M616.13,181.43c11.06,1.6,21.36,3.06,31.57,7.14C646.83,191.73,615.53,183.61,616.13,181.43Z"></path> <path class="cls-1" d="M724.81,159.43c-2.9,3.69-33.3.73-33.23.13C698.08,159.06,720.21,155.11,724.81,159.43Z"></path> <path class="cls-1" d="M737.15,152.31c-3,.86-27.29,4.3-27.37,2.25S733.56,151.47,737.15,152.31Z"></path> <path class="cls-1" d="M606.65,193.33c.45.88,6.36,1.69,4.76,2.69-1.94,1.23-18.3-4.31-17.77-6.18C593.92,188.84,605.69,193,606.65,193.33Z"></path> <path class="cls-1" d="M617.9,190.77c-2.34-1.12-6.64-2.57-7.91-4.73,3.55-.41,16.18,4.71,17.92,7C626.07,193.57,619.35,192.27,617.9,190.77Z"></path> <path class="cls-1" d="M580,195.57c-.17-2.76,12.38,1.9,12.52,2.52C593.07,200.51,580.94,196,580,195.57Z"></path> <path class="cls-1" d="M521.8,209.89c4.42-1.68,10.85-6.63,15.05-7.44C537.18,206.78,522.09,211.29,521.8,209.89Z"></path> <path class="cls-1" d="M738.24,148.37c1.8-.21,10.32-.69,10.4,1.15S739.24,149.84,738.24,148.37Z"></path> </g> </g> </svg> 