<?xml version="1.0" encoding="UTF-8"?> <svg xmlns="http://www.w3.org/2000/svg" xmlns:xlink="http://www.w3.org/1999/xlink" viewBox="0 0 166.06 180"> <defs> <style>.cls-1{fill:none;}.cls-2{isolation:isolate;}.cls-3{fill:#19133f;}.cls-4{opacity:0.8;mix-blend-mode:darken;}.cls-5{clip-path:url(#clip-path);}</style> <clipPath id="clip-path" transform="translate(0)"> <rect class="cls-1" y="12.51" width="149.87" height="167.12"></rect> </clipPath> </defs> <title>straticon</title> <g class="cls-2"> <g id="Layer_2" data-name="Layer 2"> <g id="Layer_1-2" data-name="Layer 1"> <path class="cls-3" d="M30.06,30.19C24.19,35.44,19,41.87,16.51,49.6c-2.28,7.13-2.12,14.92-4,22.2s-5.62,13.72-9,20.33c-2,4-3.95,8.52-2.73,12.84,1.82,6.37,9.3,8.65,12.9,14.1,3.15,4.77,2.83,11.11,2.66,16.94s.26,12.38,4.3,16.31c3.54,3.45,8.79,3.82,13.58,3.73,15.88-.3,32.53-4.07,44.28-15.45a74.57,74.57,0,0,1-49.38,10.46c-4.06-.58-6.92-4.83-7.71-9.12s0-8.7.36-13.05.27-9-2-12.69-6-5.44-8.91-8.3S6,100,8.48,96.72A66.85,66.85,0,0,0,20.69,68.25c1-5.66,1.28-11.53,3.26-16.9C26.24,45.13,30.64,40,35.51,35.84A65,65,0,0,1,73.08,20.36V20.3a1.84,1.84,0,0,1,0-.25,1.63,1.63,0,0,1,.11-.23,1.81,1.81,0,0,1,.19-.29c.13-.18.27-.32.41-.48a6.77,6.77,0,0,1,.51-.56l.85-.86.43-.43,1.76-1.79.77-.74c.13-.12.26-.26.4-.38L79,14l.94-.8.41-.33.17-.14.22-.15.3-.12a.28.28,0,0,1,.35.19,1.25,1.25,0,0,1,0,.19l.32-.13.46-.2.44-.17.15-.06c-1.7-.12-3.39-.18-5.09-.18A71.79,71.79,0,0,0,30.06,30.19" transform="translate(0)"></path> <path class="cls-3" d="M83.63,12.53c-.22.06-.44.13-.65.21l-.69.26-.9.39-.23.11-.44.21-.07.08c-.18.19-.36.39-.54.57l-.56.54a4.36,4.36,0,0,1-.4.35.61.61,0,0,1-.22.13l-.2,0a.28.28,0,0,1-.27-.24l-.62.59-1.51,1.53-.76.78c-.32.32-.65.63-1,1s-.48.53-.71.81a0,0,0,0,0,0,0l0,0s0,0,0,0l0,0h0c-.06.08-.11.17-.16.25l0,.1a.5.5,0,0,0,0,.12l.5,0,.47-.22.35-.18c.21-.1.42-.2.62-.32l.9-.51.15-.1.36-.24.87-.58,0,0,.21-.2,1-.95.35-.34.14-.13,1.54-1.37c.45-.4.91-.77,1.37-1.15l1.27-1.07.62-.51-.24,0-.54.18" transform="translate(0)"></path> <path class="cls-3" d="M85.29,12.59c-.14.15-.28.3-.43.44l-.79.72-.66.59-1.5,1.31-.36.29-.9.75c-.32.25-.64.52-1,.76l-.92.71-.42.32,0,0-.16.15-.1.1c-.4.44-.81.87-1.21,1.3l-.12.13H78a13.11,13.11,0,0,1,1.1-1.25c.24-.24.47-.48.71-.71l.68-.62.75-.7.31-.3,1.23-1.08.49-.43c.14-.13.29-.24.43-.36l.8-.66c.11-.09.22-.19.34-.27s.49-.39.74-.57l.42-.32.45-.31-1-.13-.1.11" transform="translate(0)"></path> <path class="cls-3" d="M87.15,12.79,87,12.9l-.32.22c-.17.12-.35.23-.51.36L85,14.34l-.7.59c-.23.19-.46.37-.68.57L82,16.94l-.39.37-1,.91c-.2.19-.4.36-.59.55s-.66.65-1,1l-.37.42h.55L80.55,19c.38-.35.79-.68,1.18-1L83,17l1.4-1.21,1-.82c.18-.16.37-.31.56-.46l.38-.31.38-.44c.16-.19.33-.39.5-.57l.33-.38h0l-.26,0-.11.07" transform="translate(0)"></path> <path class="cls-3" d="M87.52,12.76v0h0" transform="translate(0)"></path> <path class="cls-3" d="M88.06,13a.25.25,0,0,1,.16.08.27.27,0,0,1,.07.27.64.64,0,0,1-.07.27,2.44,2.44,0,0,1-.22.31c-.18.2-.38.38-.57.57l-.19.18.6-.46.33-.25,1.22-.87-1.26-.21-.07.11" transform="translate(0)"></path> <path class="cls-3" d="M90.22,13.81,88,15.55l-2,1.61-.83.68-.44.38-2.22,2,1.11-.82v0s0,0,0,0,0,0,0,0h0c.29-.22.58-.46.88-.68l1.06-.83.34-.27,1.7-1.44,2.67-2.24.19-.17.39-.36h0c-.21.16-.43.32-.63.49m-6.58,5.52h0l0,0h0" transform="translate(0)"></path> <path class="cls-3" d="M91.58,13.52l-.87.73L88.88,15.9l.62-.48,1.24-.95,1.06-.79.17-.12-.35-.08,0,0" transform="translate(0)"></path> <path class="cls-3" d="M92.34,14l-.4.3-1.3,1-1.09.85c-.32.25-.64.49-1,.75l-2.33,1.85-.58.49L84.27,20.4l-.12.1.58.06.58-.46c.43-.33.86-.66,1.28-1s1-.85,1.53-1.26l1.22-1,1.53-1.29.87-.73a3.47,3.47,0,0,0,.29-.25l.9-.79-.22,0-.37.25" transform="translate(0)"></path> <path class="cls-3" d="M88.81,14.17l-.4.28c-.8.6-1.6,1.21-2.39,1.83-.46.38-.92.76-1.37,1.15s-.75.6-1.1.91L82,19.75l-.49.43-.12.1h.18l.47-.42,2.55-2.24c.32-.28.65-.54,1-.81l1.89-1.54c.35-.29.73-.57,1.09-.85l.69-.54-.37.28" transform="translate(0)"></path> <path class="cls-3" d="M93.09,14.38l-.73.64-1,.84-1.61,1.37L88.43,18.3l-1,.85L87,19.5l-1.45,1.16.22,0,1.71-1.31,1.06-.79,1.78-1.31,1.52-1.13,1.34-1,.78-.59.54-.39-.88-.22-.5.45" transform="translate(0)"></path> <path class="cls-3" d="M98.21,15.4l-.47.39-2,1.65.75-.59,1.23-1,.73-.58,0,0-.15.13" transform="translate(0)"></path> <path class="cls-3" d="M87.89,15.59l.06,0-.06,0" transform="translate(0)"></path> <path class="cls-3" d="M99.15,15.94c-.19.2-.37.4-.57.58l-.6.56-1.81,1.61-1.13,1L93.27,21.3l-.72.64.51.12.82-.7a6,6,0,0,1,.47-.41c.24-.2.49-.38.73-.57.45-.35.89-.71,1.34-1.05L98,18.18,99,17.37l.25-.22.38-.32.08-.09a.21.21,0,0,1,.1-.06c.22-.18.43-.37.65-.54l.12-.09-.54-.19-.65-.23c-.09.11-.19.21-.28.31" transform="translate(0)"></path> <path class="cls-3" d="M102.79,17.17l-.23.25L102,18l-1,1.06-.43.44-.53.61c-.19.22-.38.45-.58.67l-.67.73h0l.09,0,.34-.3.31-.25.58-.46c.23-.19.46-.36.7-.54l.81-.6.86-.61.55-.4.38-.27.73-.56,0,0h0L103,17l-.18.2" transform="translate(0)"></path> <path class="cls-3" d="M91.8,18.52,89.66,20.3l-1,.83h.07l.36-.29,1.78-1.44L92,18.46l1.36-1.14c-.53.4-1,.81-1.58,1.2" transform="translate(0)"></path> <path class="cls-3" d="M76.12,19.92l-.56.31.37,0,.36-.39-.17.1" transform="translate(0)"></path> <polyline class="cls-3" points="73.88 19.85 73.88 19.85 73.88 19.85 73.88 19.85"></polyline> <path class="cls-3" d="M96.1,20.79l-.21.18.71-.61.21-.22-.71.65" transform="translate(0)"></path> <path class="cls-3" d="M90.65,21.51h0l.44-.39-.47.39" transform="translate(0)"></path> <path class="cls-3" d="M98.76,21.5h0" transform="translate(0)"></path> <path class="cls-3" d="M93.72,22.23l0,0,.34-.35-.38.33" transform="translate(0)"></path> <path class="cls-3" d="M105.44,18.23l-.93.93-.29.26-.62.59-.6.55-1,1c-.23.21-.45.44-.66.67a14.31,14.31,0,0,0-.94,1.1,7.46,7.46,0,0,0-.6.87l.07,0,.39-.34,1.29-1.11,1.43-1.19,1.43-1.16.81-.67a5.58,5.58,0,0,1,.3-.66,5.29,5.29,0,0,1,.5-.79l-.4-.19Z" transform="translate(0)"></path> <path class="cls-3" d="M106.53,18.66l.09-.07-.05,0,0,.09" transform="translate(0)"></path> <path class="cls-3" d="M103.56,19.13l-1.46,1-.82.55c-.26.17-.52.35-.79.51s-.3.2-.46.29a4.79,4.79,0,0,1-.58.33l-.31.13-.48.42c-.34.28-.67.56-1,.82l-.21.16c.44.14.88.29,1.31.45l.46.17c.18-.29.36-.58.56-.84a12,12,0,0,1,.84-1c.14-.16.28-.3.42-.45s.29-.3.44-.44.41-.39.61-.57l1.36-1.27.67-.63.06-.06-.61.43" transform="translate(0)"></path> <path class="cls-3" d="M104.76,20.8l-2.05,1.68.36-.28.55-.43.95-.8.2-.16h0" transform="translate(0)"></path> <path class="cls-3" d="M103.55,22.54l-.86.67-.7.52-.63.45-.57.4.52.21s0,0,0,0l1-1,1-1,.39-.39-.13.1" transform="translate(0)"></path> <path class="cls-3" d="M107.56,19.19a3,3,0,0,0-.25.25l-.42.43-.91,1-.44.47a1.82,1.82,0,0,0-.07.25c0,.15-.09.29-.13.45s-.1.42-.14.62c0,0,0-.05,0-.07a1,1,0,0,0,0,.3v-.06l0,.11,0,.05.29-.29.83-.82c.12-.12.25-.23.38-.34l.52-.46c.13-.12.28-.22.41-.33l.41-.34.8-.63-1.25-.64-.09.09" transform="translate(0)"></path> <path class="cls-3" d="M104.07,22.84l-1,1-1,1c-.07.06-.13.13-.19.19l.65.28L103,25l.85-.69a.6.6,0,0,1,.08-.08.28.28,0,0,1-.11-.3c.07-.25.14-.49.22-.74s.08-.27.13-.4l-.08.08" transform="translate(0)"></path> <path class="cls-3" d="M105.25,23h0l0,0,0,0" transform="translate(0)"></path> <path class="cls-3" d="M104.44,23.73l.3-.27.11-.11v0l0-.06c0-.06-.07-.12-.1-.19a.36.36,0,0,0,0-.1c-.08.25-.16.5-.23.75" transform="translate(0)"></path> <path class="cls-3" d="M109.74,20.26l-.53.63-.82,1-.26.3-.43.49.1,0-.06,0,.44-.19,1.11-.86c.41-.33.84-.65,1.26-1l-.78-.43,0,0" transform="translate(0)"></path> <path class="cls-3" d="M110.66,21.27l.16-.08.26-.24h0l-.42.32" transform="translate(0)"></path> <path class="cls-3" d="M111.44,21.49l-.21.12a.56.56,0,0,1,0,.12A1.84,1.84,0,0,1,111,22a3.31,3.31,0,0,1-.26.27l-.32.31c-.16.17-.34.33-.51.49l-1.2,1.1c-.43.39-.85.79-1.28,1.17l-1.11,1.07c-.18.16-.35.33-.52.5l.43.22.85-.6,6.12-4.27c-.49-.31-1-.61-1.48-.9l-.3.15" transform="translate(0)"></path> <path class="cls-3" d="M106.38,22.63l-.46.45-.11.11H106l0-.08c.11-.16.21-.32.32-.47l.06-.08-.08.08" transform="translate(0)"></path> <path class="cls-3" d="M114,22.79c-.33.55-.69,1.08-1.07,1.59s-.75.94-1.13,1.4l1.14-.81.35-.23.35-.22c.18-.1.35-.21.54-.3l.16-.09.79-.69-1.06-.7-.07.05" transform="translate(0)"></path> <path class="cls-3" d="M108.42,23.28l-.66.49-1.55,1.17s0,0,0,0h0l0,0h0l-.09.07h0a.1.1,0,0,1,0,0,0,0,0,0,0,0,0l0,0,0,0,0,0-.06,0,0,0-.12.1-.13.11-.12.08-.07.06,0,0h0a.18.18,0,0,1-.07.05l0,0-.09.08,0,0-.07.05-.07.06,0,0-.16.13,0,0h0l0,0,.5.24,3.89-3.56-.5.35" transform="translate(0)"></path> <path class="cls-3" d="M105.26,23.73c-.14.15-.3.29-.46.43-.33.3-.67.6-1,.88-.18.14-.35.29-.53.42l-.15.12.66.3.84-.65.4-.41a.26.26,0,0,1,0-.19c.21-.29.41-.58.6-.88h-.12l-.08,0a.31.31,0,0,1-.13,0l0,0" transform="translate(0)"></path> <path class="cls-3" d="M115.46,23.84a.81.81,0,0,1,.21.1.28.28,0,0,1,.12.32,1.17,1.17,0,0,1-.09.24.87.87,0,0,1-.18.31c-.09.12-.19.22-.29.33l-.34.34h0l1.24-.83.37-.25-1-.65-.09.08" transform="translate(0)"></path> <path class="cls-3" d="M112,24.5l-.75.7-.36.32-.87.77-1,.88-.87.78-.13.11.47.26.37-.3.29-.25.57-.44c.84-1,1.72-2,2.53-3l-.23.21" transform="translate(0)"></path> <path class="cls-3" d="M115.16,24.35l-.12,0-.44.22c-1.27,1.12-2.56,2.23-3.85,3.35l-1.19,1,.16.09.11-.08,2.08-1.47.43-.31.47-.45c.77-.74,1.54-1.49,2.27-2.28l0,.06a.68.68,0,0,0,.13-.18Z" transform="translate(0)"></path> <path class="cls-3" d="M112.7,27.64c-.56.53-1.12,1.07-1.71,1.58l-.43.36.87.55L113,28.84l1-.87c.59-.52,1.17-1,1.74-1.57a2.68,2.68,0,0,0,.3-.28l.83-.83.39-.39-.21-.14-4.28,2.88" transform="translate(0)"></path> <path class="cls-3" d="M106.2,25h0" transform="translate(0)"></path> <path class="cls-3" d="M106.19,25h0Z" transform="translate(0)"></path> <path class="cls-3" d="M106.16,25h0s0,0,0,0h0l0,0" transform="translate(0)"></path> <path class="cls-3" d="M106,25.08l0,0,0,0" transform="translate(0)"></path> <path class="cls-3" d="M117.52,25.71l-2,1.74,1-.72c.34-.24.69-.47,1-.69l.63-.41a3.4,3.4,0,0,1-.3-.23l-.36.31" transform="translate(0)"></path> <path class="cls-3" d="M118.84,26.48l-1.24.82-2,1.3-1,.67-2.1,1.43-.11.08.73.49.26-.17,3.29-2.54h0l2.64-2.06-.24-.19-.25.16" transform="translate(0)"></path> <path class="cls-3" d="M107.29,27.19l-.39.27.16.08,1.38-1.16-1.15.81" transform="translate(0)"></path> <path class="cls-3" d="M119.21,27.31h0l.54-.34.09-.06-.06-.05-.57.45" transform="translate(0)"></path> <path class="cls-3" d="M119.57,27.75c-.36.23-.73.45-1.08.69l-1.41.93L115,30.77l-1.31.85h0l.7.5.1-.08.91-.76,3.46-2.77,1.54-1.21,0,0-.73.47" transform="translate(0)"></path> <path class="cls-3" d="M110.1,27.73l-.13.15.18-.16.5-.42-.55.43" transform="translate(0)"></path> <path class="cls-3" d="M120.18,28.5c-.63.65-1.29,1.28-1.93,1.93l-.28.27-.25.22c-.22.21-.45.41-.68.61.44-.28.88-.56,1.31-.85l2.21-1.44.9-.59.29-.18-.86-.71c-.23.25-.47.49-.71.74" transform="translate(0)"></path> <path class="cls-3" d="M122,29l-.79.5c-.7.46-1.4.93-2.1,1.38l-2.55,1.66-.88.56.26.2,2.54-1.66,1.22-.77c.73-.45,1.46-.91,2.22-1.31l.69-.37-.38-.33L122,29" transform="translate(0)"></path> <path class="cls-3" d="M116.08,31.42c-.43.34-.85.7-1.28,1l.21.15.1-.1L117,30.86l.6-.54c.12-.11.23-.23.35-.35l.08-.08-1.91,1.53" transform="translate(0)"></path> <path class="cls-3" d="M121.42,30.46l-1.65,1-.93.59-2.37,1.55-.09.06.57.45,4.8-3.7.66-.5q-.5.25-1,.54" transform="translate(0)"></path> <path class="cls-3" d="M124.11,31,122.61,32l.92-.43,1.1-.53-.27-.26-.25.16" transform="translate(0)"></path> <polyline class="cls-3" points="122.52 31.12 122.53 31.12 122.52 31.12"></polyline> <path class="cls-3" d="M122.93,32.48l-.9.44-2.1,1-.45.22-1.25,1,.46.4,2.06-1.31,2.87-1.85,1.38-.9,0,0-2.1,1" transform="translate(0)"></path> <path class="cls-3" d="M125.46,31.89l-.09.05q-.36.43-.75.84L123,34.44l-.3.29-.79.73-1.08,1,1.39-.87,2-1.28c.17-.11.34-.22.52-.32l1.82-1.06c-.36-.36-.72-.72-1.09-1.07l0,0" transform="translate(0)"></path> <path class="cls-3" d="M122.19,34l-.91.58L119.13,36l.72.63.84-.78,1.7-1.57.32-.32.66-.67-1.18.77" transform="translate(0)"></path> <path class="cls-3" d="M126.15,34.49l-.72.46c-.18.11-.36.22-.53.34l-1.63,1.11-2.08,1.42c.36.33.71.68,1.06,1l1.24-.83.9-.6s0,0,0,0l2.21-1.58,1.59-1.17-.84-.89-1.22.74" transform="translate(0)"></path> <path class="cls-3" d="M126.17,37.32c-.38.23-.75.47-1.13.69l-.64.38-.55.4-1,.69.21.22L125.77,38l.18-.11.34-.27.66-.54,1-.84-1.79,1.1" transform="translate(0)"></path> <path class="cls-3" d="M129.07,36.91l-1.13.71-.16.15c-.31.29-.61.57-.93.84l-.64.59.82-.48,2-1.2c.38-.23.76-.45,1.13-.69-.11-.13-.23-.26-.34-.4l-.77.48" transform="translate(0)"></path> <path class="cls-3" d="M121.62,36.84l-.93.51.08.08.93-.63-.08,0" transform="translate(0)"></path> <path class="cls-3" d="M129.71,38.23l-.68.5-.65.46-1.92,1.33c-.41.28-.8.57-1.2.86l-.34.24.21.23.51-.32,2.29-1.41.92-.57.32-.2c.72-.4,1.43-.8,2.15-1.18l-.58-.69c-.34.26-.69.5-1,.75" transform="translate(0)"></path> <path class="cls-3" d="M130.58,39.21l-.75.41c-.12.08-.26.14-.38.22l-2.25,1.39-1.69,1,0,0,6-3.08L132,39l-.32-.39-1.1.59" transform="translate(0)"></path> <path class="cls-3" d="M127.24,39.25c-.12.08-.25.15-.38.22l-1,.54-1.62.93.25.26.16-.11c.48-.34.94-.69,1.42-1L127.65,39c-.13.09-.27.17-.41.25" transform="translate(0)"></path> <path class="cls-3" d="M124.74,39.7c-.3.2-.59.39-.88.6l-.11.07.14.14.8-.71.29-.26-.24.16" transform="translate(0)"></path> <path class="cls-3" d="M132.08,39.74l-1.28.73-.58.33-.49.31-3.4,2.11c.28.32.55.64.82,1l.38-.19,1.33-.65.78-.4.64-.48,1.32-.95,1.5-1.1-.67-.87-.35.19" transform="translate(0)"></path> <path class="cls-3" d="M132.76,41.36l.75-.38h0l-.09-.12-.68.5" transform="translate(0)"></path> <path class="cls-3" d="M131.46,43.64,129.54,45l-.89.59-.25.16c.13.17.27.34.4.52l1.64-1.08c.43-.28.85-.57,1.28-.84L133.85,43l.71-.62-.44-.61-2.66,1.87" transform="translate(0)"></path> <path class="cls-3" d="M132.57,42.09l-2.37,1.2-.27.14L127.83,45l.22.26.81-.52.25-.16,1.8-1.26L133,41.85l-.46.24" transform="translate(0)"></path> <path class="cls-3" d="M125.92,42.74l0,0,.6-.37-.64.32" transform="translate(0)"></path> <path class="cls-3" d="M135.17,43.54l-.32.23.49-.29,0,0-.14.1" transform="translate(0)"></path> <path class="cls-3" d="M133.11,45.51l-3.3,2.08a.39.39,0,0,0,.08.1l1.39-.82.49-.28.47-.3L134.36,45l.41-.27.71-.48a2.2,2.2,0,0,0,.25-.17l-.07-.11c-.86.52-1.71,1-2.55,1.57" transform="translate(0)"></path> <path class="cls-3" d="M134.51,45.74l-1,.58L131,47.77l-.72.42.44.61.54-.34c.28-.17.57-.34.84-.53l3.25-2.15.4-.29.66-.49-.18-.27-1.68,1" transform="translate(0)"></path> <path class="cls-3" d="M136.06,45.92l-.47.35-.48.31L133,48c-.32.21-.64.43-1,.63l-.93.57.59-.33c.45-.24.89-.49,1.33-.74l1.49-1,.93-.62.34-.24,1-.65-.1-.15-.62.45" transform="translate(0)"></path> <path class="cls-3" d="M136.56,46.76l-1.1.64-.08,0-1,.64c-.76.47-1.5,1-2.25,1.45l-.63.41.35.52,2-1.45L137,46.75l.36-.28-.07-.1-.69.39" transform="translate(0)"></path> <path class="cls-3" d="M137.27,47.22l-.48.35-2.08,1.5-2.59,1.86c.11.17.22.34.32.51l1.39-1c.32-.22.63-.45,1-.67l1.38-.91,1.88-1.23-.43-.71c-.12.09-.23.19-.35.27" transform="translate(0)"></path> <path class="cls-3" d="M137.73,48.53l-2.64,1.75-.51.35-1.39,1-.45.31.13.2.45-.19.48-.21,1.75-.82,1.09-.51.32-.15,2-1-.63-1.08-.61.39" transform="translate(0)"></path> <path class="cls-3" d="M138.21,50.23l-.82.41-.23.12-1.23.57-1.84.86-.49.21-.43.19.37.61,1.61-1c.32-.2.65-.38,1-.56l2.31-1.33.65-.38h0l.19-.15a.59.59,0,0,1,0-.08l-1,.53" transform="translate(0)"></path> <path class="cls-3" d="M139.36,50.55l-.78.61-.23.18-1.74,1.24-1.8,1.29-.63.42.67,1.19,1.81-1.13c.26-.16.51-.33.77-.48l1.59-.94,1.5-.88c-.3-.57-.6-1.14-.91-1.7l-.25.2" transform="translate(0)"></path> <path class="cls-3" d="M137.67,54.37l-.87.55-.57.36,2.24-1.12L141,52.91l-.18-.37-3.11,1.83" transform="translate(0)"></path> <path class="cls-3" d="M138.37,54.84l-3,1.52.46.86,1.18-.78.62-.41,3.76-2.35-.14-.27-2.84,1.43" transform="translate(0)"></path> <path class="cls-3" d="M139.44,55.53l-.06,0,.49-.25c.47-.28.95-.56,1.44-.83l.32-.22a.2.2,0,0,0,0-.08l-2.15,1.34" transform="translate(0)"></path> <path class="cls-3" d="M141.11,55.3c-.41.26-.81.54-1.21.8s-.63.4-.94.6l-2.22,1.38-.39.24c.28.57.55,1.15.82,1.72l3.09-1.86c.24-.15.49-.29.74-.43l1.77-1c-.27-.63-.55-1.25-.85-1.87l-.81.42" transform="translate(0)"></path> <path class="cls-3" d="M141.29,58.23c-.25.15-.5.28-.75.44l-1.78,1.07-1.35.82.06.13.88-.48c1.06-.56,2.11-1.13,3.16-1.71l1.64-.89-.15-.34-1.71,1" transform="translate(0)"></path> <path class="cls-3" d="M142.25,58.8c-.68.38-1.34.79-2,1.2l-2.43,1.46c.16.35.31.71.46,1.07l1.28-.8.77-.46c.74-.44,1.47-.89,2.21-1.3.44-.24.87-.47,1.31-.69l-.46-1.12c-.37.22-.75.43-1.13.64" transform="translate(0)"></path> <path class="cls-3" d="M143.1,60.61h0l1-.59s0,0,0-.06l-1,.66" transform="translate(0)"></path> <path class="cls-3" d="M144.28,60.56q-1.4.84-2.82,1.65l-2.15,1.23-.54.3c.06.16.12.32.19.48l.91-.59,2.26-1.45,1-.64,1.25-.83-.06-.17-.05,0" transform="translate(0)"></path> <path class="cls-3" d="M143.89,61.71c-.28.18-.54.36-.82.53l-3.88,2.49,0,0c.11.27.21.54.31.82l1.89-1.1,1.57-.91c.28-.17.56-.31.84-.46l1.25-.65c-.14-.41-.29-.81-.43-1.21l-.7.47" transform="translate(0)"></path> <path class="cls-3" d="M143.52,63.87c-.23.12-.45.26-.68.39l-2,1.18-1.15.66c0,.07.05.14.07.2,1-.49,2.05-1,3.06-1.5l1.38-.67.23-.14.37-.2.57-.29,0,0c-.05-.17-.11-.33-.17-.5l-1.68.89" transform="translate(0)"></path> <path class="cls-3" d="M144.42,64.63l-.13.08-1.58.91-1.28.74-.58.37-.79.51c.17.5.34,1,.5,1.53l1.49-.81c.25-.14.5-.26.76-.39l.43-.26,1.09-.67c.58-.35,1.14-.71,1.71-1.07-.16-.5-.31-1-.47-1.5l-1.15.56" transform="translate(0)"></path> <path class="cls-3" d="M145.8,67.32c-.32.16-.64.34-1,.51l-1.83,1-.36.19-.32.19-1.4.81.09.31c.28-.13.55-.25.82-.39L144,68.86l.49-.26.8-.43,1.27-.7c0-.15-.09-.31-.13-.47l-.65.32" transform="translate(0)"></path> <path class="cls-3" d="M143.09,68.05c-.7.43-1.39.85-2.09,1.26l.21-.11,1.07-.6.42-.23c.23-.14.47-.27.71-.4s.73-.41,1.1-.6l-1.42.68" transform="translate(0)"></path> <path class="cls-3" d="M146.74,68.52c-.51.32-1,.62-1.55.93l-.91.55-.42.23-2.21,1.18a2.44,2.44,0,0,1-.28.14c.15.53.28,1,.41,1.58l.05,0,.95-.72,1.47-1.1,0,0,0,0,0,0,1.28-1.09c.23-.19.46-.38.68-.58s.22-.19.33-.29l.39-.36-.12-.46-.1.06" transform="translate(0)"></path> <path class="cls-3" d="M143.18,69.91l-1,.5-.3.15-.7.32,0,.12.09,0,2.19-1.18a4.31,4.31,0,0,0,.47-.26,1.13,1.13,0,0,0,.21-.12l-1,.51" transform="translate(0)"></path> <path class="cls-3" d="M146.76,69.87l-.36.3-1.73,1.47-.36.28-.89.67-1.34,1,.21-.07.17-.1,4-2.18c.3-.17.61-.32.91-.47-.09-.41-.19-.82-.29-1.23l-.35.33" transform="translate(0)"></path> <path class="cls-3" d="M146.7,71.76l-.36.2.21-.09,0,0,1-.44s0-.08,0-.12l-.83.43" transform="translate(0)"></path> <path class="cls-3" d="M146.41,72.9l-.27.16-.82.48-1.14.68,1.41-.77,1.25-.66.9-.47v0a.29.29,0,0,1,0-.09l-1.3.71" transform="translate(0)"></path> <path class="cls-3" d="M147.49,73.08l-2.15,1.15-3,1.6.09.48h0l2.23-1.3,1.05-.61,2.06-1.25,0,0c0-.07,0-.14,0-.21l-.36.18" transform="translate(0)"></path> <path class="cls-3" d="M144,73.47l-1.37.5-.13,0-.34.18-.15.09,0,.09.09.38.25-.14L145,73.1l-.92.37" transform="translate(0)"></path> <path class="cls-3" d="M147.6,73.94l-1.66,1-.93.54-2,1.16-.41.25c.05.31.11.62.16.94l2-1c.91-.47,1.83-.95,2.76-1.4l.72-.37c-.08-.45-.15-.9-.24-1.35l-.4.24" transform="translate(0)"></path> <path class="cls-3" d="M147.84,77l-.79.34-.67.37-1.49.82-.41.24-1,.56-.47.27a.52.52,0,0,1,0,.11c.52-.27,1-.53,1.57-.78s1.23-.56,1.85-.81l.78-.44c.19-.1.37-.23.56-.34l.7-.42,0-.2-.65.28" transform="translate(0)"></path> <path class="cls-3" d="M143.5,78.09l-.64.33h0l.06,0,.38-.15,1.67-.87.07,0,.09-.06.32-.19-2,1" transform="translate(0)"></path> <path class="cls-3" d="M148.49,78.36l-2.05,1-.36.16-1,.43-.8.34-.94.56-.12.07c0,.27.07.55.1.82l1.68-.85c.93-.47,1.87-.9,2.83-1.31l1-.39c0-.3-.06-.59-.1-.89Z" transform="translate(0)"></path> <path class="cls-3" d="M147.89,80.67l-.29.16-.86.46-2.31,1.24-1,.52c0,.15,0,.29.05.43l1.31-.56,1.12-.47.46-.19.47-.22L147,82l1.95-1,0,0-.06-.7-1,.47" transform="translate(0)"></path> <path class="cls-3" d="M146,81c-.53.25-1.05.53-1.58.79l-1,.5s0,.1,0,.15l.16-.09,3.18-1.71L146,81" transform="translate(0)"></path> <path class="cls-3" d="M149,81.66a.3.3,0,0,1-.08.08l-.2.19-.54.46,0,0a.42.42,0,0,1,0,.27,1.58,1.58,0,0,1-.12.15l-.05,0-.22.16,0,0,.19-.1,1.22-.71h0c0-.2,0-.4-.05-.6l-.06,0" transform="translate(0)"></path> <path class="cls-3" d="M148.71,83.16l-.63.32-.25.14-.09,0,.24-.11,1.15-.53s0-.06,0-.08l-.41.21" transform="translate(0)"></path> <path class="cls-3" d="M144.79,83.86l-.85.42-.34.17v.12l.35-.14-.07,0c.3-.13.62-.27.91-.42s.47-.22.7-.35l.68-.39.13-.07.3-.25c-.62.27-1.22.58-1.82.88" transform="translate(0)"></path> <path class="cls-3" d="M149,84.23l-.9.55c-.19.12-.4.22-.6.33l-1.09.61L146,86l-1,.48c-.41.2-.81.41-1.22.59,0,.42,0,.84.05,1.25l1-.57,1.12-.64.88-.46c.43-.22.87-.45,1.31-.65l1.1-.49c0-.45,0-.9-.05-1.36l-.19.11" transform="translate(0)"></path> <path class="cls-3" d="M147.51,84.41l-.86.42-2.2,1.1-.72.39v.12l1.69-.83.38-.19.57-.32,1-.56.42-.23.3-.19-.59.29" transform="translate(0)"></path> <path class="cls-3" d="M148.62,86.36l-1.13.55c-.39.2-.76.39-1.13.6-.66.36-1.32.74-2,1.11l-.56.31c0,.09,0,.18,0,.27l0,0,1.84-1.1.41-.23,1.08-.59,1-.55c.33-.18.66-.35,1-.51l0,0v-.09l-.63.27" transform="translate(0)"></path> <path class="cls-3" d="M147.78,87.85l-.69.37-1,.52a6.63,6.63,0,0,1-.6.29l-1.12.53-.22.1-.32.19c0,.42,0,.84,0,1.26l1.76-1c.16-.09.33-.18.48-.28l.66-.41.84-.54.36-.24c.44-.32.9-.62,1.34-1,0-.22,0-.44,0-.67l-1.48.83" transform="translate(0)"></path> <path class="cls-3" d="M148.57,88.91l-.76.49-1.34.92c-.78.53-1.55,1-2.36,1.5l-.29.17c-.37,17.85-7,35.6-18.71,48.44-3.14,3.43-6.69,6.68-8.43,11.1-1.32,3.33-1.47,7-1.47,10.65A143.41,143.41,0,0,0,116.32,180q.41-8.64.82-17.29c.15-3.27.33-6.65,1.65-9.61,1.57-3.51,4.56-6,7.26-8.62,14.64-14.1,23-35,23.21-56l-.69.43" transform="translate(0)"></path> <polyline class="cls-3" points="99.69 19.36 99.69 19.35 99.69 19.36"></polyline> <polyline class="cls-3" points="97.49 22.62 97.5 22.61 97.5 22.61 97.49 22.62"></polyline> <polyline class="cls-3" points="97.49 22.62 97.49 22.62 97.49 22.62"></polyline> <path class="cls-3" d="M95.42,22.71h0a3.88,3.88,0,0,0,.31-.26l.18-.18-.5.44" transform="translate(0)"></path> <path class="cls-3" d="M162.9,28.87l-3.24-3.34-.33,4.64a30.9,30.9,0,0,1-.75,5.69A15.86,15.86,0,0,1,150.32,46a1.46,1.46,0,0,1-1,.21c-.43-.12-.66-.57-.84-1-.38-.87-.6-2.19.29-2.51,3.16-1.15,5.33-4.19,6.29-7.4s.91-6.64.85-10l-3.62,3.28a.84.84,0,0,1-.58.29.81.81,0,0,1-.48-.31c-.44-.46-.89-.92-1.33-1.39a.8.8,0,0,1-.28-.45c-.05-.28.18-.53.38-.72q3.66-3.46,7.33-6.92a.91.91,0,0,1,.62-.34.93.93,0,0,1,.59.36q3.86,4,7.52,8.15L164.28,29a1.13,1.13,0,0,1-.58.35,1.11,1.11,0,0,1-.8-.44M134.69,17.2a5.38,5.38,0,0,1,1.74-1.27,1.83,1.83,0,0,1,2,.38,1.83,1.83,0,0,1,.1,1.93,5.4,5.4,0,0,1-1.34,1.52l-2.4,2.13c-.42.36,0,1,.36,1.42L136.81,25a5.5,5.5,0,0,1,1.37,1.82,1.87,1.87,0,0,1-.45,2.1,1.84,1.84,0,0,1-1.93,0,5.39,5.39,0,0,1-1.49-1.37l-2-2.37c-.41-.49-1.18,0-1.63.41l-1.84,1.83a5.17,5.17,0,0,1-1.48,1.16,1.59,1.59,0,0,1-2.18-2.2,5.29,5.29,0,0,1,1.46-1.74L129,22.54c.37-.33,0-.92-.32-1.28-.7-.71-1.39-1.43-2.09-2.15s-1.57-1.84-1.12-2.82a1.85,1.85,0,0,1,2.37-.73,5.06,5.06,0,0,1,2,1.82,6.17,6.17,0,0,0,1.92,1.92.91.91,0,0,0,.35.12,1,1,0,0,0,.68-.37l1.92-1.85m16.62,49.07a1.74,1.74,0,0,1-2.08-1.79,3.33,3.33,0,0,1,1.33-1.93l2.3-2c.29-.26.6-.58.55-1a1.24,1.24,0,0,0-.38-.61l-2.36-2.47a3.49,3.49,0,0,1-1-1.5,1.8,1.8,0,0,1,2.22-2,3.41,3.41,0,0,1,1.31,1l2.61,2.85c.32.35.89,0,1.25-.28l2.77-2.49a3.24,3.24,0,0,1,1.07-.73,1.71,1.71,0,0,1,2.15,1.47,3.35,3.35,0,0,1-1.47,2.38c-.78.69-1.56,1.38-2.35,2.06-.26.24-.55.64-.31.91l2.73,3a3.3,3.3,0,0,1,1,1.64,1.72,1.72,0,0,1-2.05,1.81,3.29,3.29,0,0,1-1.45-1.09l-2.69-3c-.32-.34-.88,0-1.22.31l-2.56,2.45a3.4,3.4,0,0,1-1.34.92m2.26-65A8,8,0,0,1,159.82.23,8.06,8.06,0,0,1,165.7,8.1a7.8,7.8,0,0,1-15,2.58,8.06,8.06,0,0,1,2.91-9.38m6.05,10.44A4.43,4.43,0,0,0,162,6.46a4.43,4.43,0,0,0-5.07-2.79,4.39,4.39,0,0,0-3.15,3.19,4.28,4.28,0,0,0,5.87,4.88M101.07,71.85a7.79,7.79,0,0,1,11.23-5.91,7.79,7.79,0,1,1-11.23,5.91m5.16,4.22a4.3,4.3,0,1,0,.59-6.67,4.33,4.33,0,0,0-1.89,3.19,4.38,4.38,0,0,0,1.3,3.48m7-22.4a2.07,2.07,0,0,1-1.07-4,2.07,2.07,0,1,1,1.07,4M99.35,37.78l-2.49-2.64c-.67-.71-1.4-1.66-1-2.57a1.75,1.75,0,0,1,2.08-.84,4.42,4.42,0,0,1,2,1.42,21.41,21.41,0,0,1,1.6,1.94c.23.32.52.68.92.68a1.29,1.29,0,0,0,.81-.44l2.68-2.48a3.23,3.23,0,0,1,1.2-.81,1.69,1.69,0,0,1,2.07,1.26c.2,1.13-.77,2.09-1.65,2.82l-2.42,2c-.33.27,0,.8.24,1.11l3.07,3.31a1.69,1.69,0,0,1-1.63,2.8,3.37,3.37,0,0,1-1.63-1.2l-2.51-2.79c-.3-.33-.84,0-1.18.24l-3.76,3.25a1.37,1.37,0,0,1-2-.46,2.23,2.23,0,0,1,.15-2.19,6.86,6.86,0,0,1,1.56-1.67l1.44-1.26c.43-.4.89-1.07.48-1.5m17.74,8.06a2.07,2.07,0,1,1-.22,1.08,2.23,2.23,0,0,1,.22-1.08M141.44,48a2.06,2.06,0,1,1,2.58.24,2.11,2.11,0,0,1-2.58-.24m-8.06-.14a2.05,2.05,0,1,1,2.84-.25,2.14,2.14,0,0,1-2.84.25m-22,8.83a2,2,0,0,1-1.28,3.51,2,2,0,0,1-1.22-3.77,2.1,2.1,0,0,1,2.5.26m13.1-11.52a2.12,2.12,0,0,1,1-1,2.06,2.06,0,1,1-1,1" transform="translate(0)"></path> <g class="cls-4"> <g class="cls-5"> <path class="cls-3" d="M16.19,49.87C13.88,57,14.05,64.72,12.18,72s-5.67,13.66-9,20.23c-2,4-4,8.48-2.74,12.78,1.82,6.34,9.36,8.61,13,14,3.17,4.75,2.85,11.06,2.68,16.86s.26,12.31,4.33,16.23c3.56,3.43,8.85,3.8,13.68,3.71,16-.3,32.76-4.05,44.58-15.38a75.75,75.75,0,0,1-49.72,10.41c-4.09-.57-7-4.8-7.76-9.07s0-8.66.36-13,.27-9-2-12.62-6-5.42-9-8.26S5.6,100,8.09,96.76A66.16,66.16,0,0,0,20.4,68.44c1-5.64,1.29-11.48,3.27-16.82C26,45.44,30.41,40.37,35.32,36.19c17.49-14.92,42.37-19.6,63.68-12s38.36,27.27,43.63,50.31-1.41,48.73-17.09,65.73c-3.15,3.42-6.73,6.65-8.49,11-1.32,3.32-1.48,7-1.48,10.6a140.27,140.27,0,0,0,1.13,17.74q.4-8.61.82-17.2c.15-3.26.33-6.62,1.66-9.57,1.58-3.49,4.59-6,7.32-8.58,18.55-17.66,27.14-46.11,21.82-71.84s-24.25-47.81-48-56.14S49,13.63,29.83,30.56c-5.91,5.23-11.15,11.63-13.64,19.31" transform="translate(0)"></path> </g> </g> </g> </g> </g> </svg> 