<?xml version="1.0" encoding="UTF-8"?> <svg xmlns="http://www.w3.org/2000/svg" viewBox="0 0 175.09 180"> <defs> <style>.cls-1{fill:#2c2c2c;}</style> </defs> <title>processes</title> <g id="Layer_2" data-name="Layer 2"> <g id="Draw_Layer" data-name="Draw Layer"> <path class="cls-1" d="M54.61,129a2.48,2.48,0,0,1-2.82,3.62,5.07,5.07,0,0,1-1.47-.82A60.86,60.86,0,0,1,29,103.35a4.73,4.73,0,0,1-.39-1.88,2.46,2.46,0,0,1,4-1.71A5.3,5.3,0,0,1,34,102.1,53.82,53.82,0,0,0,53,127.52,5.07,5.07,0,0,1,54.61,129Zm-1.93,3.43a2.27,2.27,0,0,0,1.89-2.93,4.45,4.45,0,0,0-1.75-1.85,54.8,54.8,0,0,1-19.18-25.77,4.72,4.72,0,0,0-1-1.84,2.22,2.22,0,0,0-3.73,1.16,4.33,4.33,0,0,0,.36,2.23,60.27,60.27,0,0,0,20.76,27.9,4.29,4.29,0,0,0,2.62,1.1Zm41.14,4.21a5,5,0,0,1,1-.86l11.81-8.6a4.78,4.78,0,0,1,2.28-1.11,2.41,2.41,0,0,1,2.28,3.69,4.56,4.56,0,0,1-1.31,1.24q-1.92,1.41-3.85,2.81a52.88,52.88,0,0,0,22.37-17.32,5.12,5.12,0,0,1,2.43-2.14,2.52,2.52,0,0,1,3.05,2.55,4.6,4.6,0,0,1-1.12,2.26,61.6,61.6,0,0,1-27.39,20.29,13.43,13.43,0,0,0,3.34,1.5,3.93,3.93,0,0,1,2.55,2.44,2.52,2.52,0,0,1-2.25,2.94,5,5,0,0,1-2.28-.62l-11.26-5.08a4.8,4.8,0,0,1-1.43-.85,2.46,2.46,0,0,1-.2-3.14Zm16.53,8.64c-.89.93-2.43.46-3.6-.07l-11.06-5c-.78-.35-1.64-.79-1.88-1.61-.35-1.18.77-2.24,1.77-2.95l11.27-8.11a3.91,3.91,0,0,1,2.42-1,2,2,0,0,1,1.71,2.51,3.94,3.94,0,0,1-1.68,1.82l-5.73,4c0,.23.38.22.61.13a54.56,54.56,0,0,0,24.67-18.38c.64-.85,1.37-1.8,2.42-1.92a2,2,0,0,1,2.12,1.71,3.75,3.75,0,0,1-1,2.44,60.62,60.62,0,0,1-11.87,11.86,1.35,1.35,0,0,0,.88-.4,61.34,61.34,0,0,0,11.29-11.53,4.15,4.15,0,0,0,1-1.91,2.25,2.25,0,0,0-2.72-2.32,4.51,4.51,0,0,0-2.12,1.85,55.38,55.38,0,0,1-19.9,16.39,16.42,16.42,0,0,1-3.94,1.47l4.51-3.26a4.36,4.36,0,0,0,1.66-1.75,2.29,2.29,0,0,0-2.17-3,4.36,4.36,0,0,0-2.17,1l-11.68,8.41a3.35,3.35,0,0,0-1.54,1.81,2.26,2.26,0,0,0,.75,2.05,6.56,6.56,0,0,0,2,1.16l4.14,1.85,6.69,3a4.41,4.41,0,0,0,1.75.51,2.21,2.21,0,0,0,1.62-3.73,4.54,4.54,0,0,0-1.42-.89l-4.33-2c5.14-2.11,10.36-4.27,14.62-7.82a71.22,71.22,0,0,1-14.92,7.7,5.78,5.78,0,0,0,2.8,1.55,6.91,6.91,0,0,1,2.87,1.45,2.2,2.2,0,0,1,.27,2.92ZM94,137.72a1.8,1.8,0,0,0,.62,1.61,5.54,5.54,0,0,0,1.54.91l4,1.76,7.48,3.33a3.18,3.18,0,0,0,1.08.35,1.8,1.8,0,0,0,1.67-.82,1.84,1.84,0,0,0,0-1.87,3.63,3.63,0,0,0-1.71-1.2l-4.11-1.8c-.35-.16-.71-.69-.35-.82a59.53,59.53,0,0,0,28.11-20.5,3.5,3.5,0,0,0,.88-1.91,1.88,1.88,0,0,0-2.75-1.53,3.83,3.83,0,0,0-.91,1A55.18,55.18,0,0,1,104,135.34c-.2.07-.46.12-.58-.06s.09-.45.29-.59l5.28-3.76c.83-.59,1.73-1.31,1.81-2.32a1.83,1.83,0,0,0-2.11-1.83,3.64,3.64,0,0,0-1.23.65q-6.09,4.4-12.2,8.77A2.75,2.75,0,0,0,94,137.72Zm10.25,1.63-.11.18a.32.32,0,0,0,.33-.23.16.16,0,0,0-.19.07l0,0ZM40.15,52A2.45,2.45,0,0,1,37,48.8a4.34,4.34,0,0,1,.69-1.1A60.65,60.65,0,0,1,66.77,27a4.75,4.75,0,0,1,1.74-.32,2.49,2.49,0,0,1,2.09,1.48,2.52,2.52,0,0,1-.4,2.53A5.12,5.12,0,0,1,67.79,32,53.85,53.85,0,0,0,42.2,50.11,5.11,5.11,0,0,1,40.15,52Zm-3-2.7A2.18,2.18,0,0,0,40,51.79,4.63,4.63,0,0,0,42,50,54.39,54.39,0,0,1,67.83,31.71a4.6,4.6,0,0,0,2.24-1.22A2.19,2.19,0,0,0,67.74,27,59.27,59.27,0,0,0,38,47.65a4.39,4.39,0,0,0-.88,1.63Zm83.68-6.74a5.08,5.08,0,0,1-1.75-2.11,2.43,2.43,0,0,1,2.75-3.14A4.63,4.63,0,0,1,124,38.54a60.65,60.65,0,0,1,16.76,24.1,33.88,33.88,0,0,0,3.08-6.87,2.86,2.86,0,0,1,2.93-1.94,2.68,2.68,0,0,1,2.34,2.56,5.07,5.07,0,0,1-.67,2.12l-4.89,10L141.82,72a7,7,0,0,1-1.38,2.12,2.33,2.33,0,0,1-2.32.61,3.44,3.44,0,0,1-1.51-1.44l-8.73-12.81a4.82,4.82,0,0,1-1.06-2.4,2.41,2.41,0,0,1,3.6-2.2,4.88,4.88,0,0,1,1.47,1.59l3.27,4.8a52.25,52.25,0,0,0-14.32-19.73ZM120,41.41a58.36,58.36,0,0,1,16.35,22.66A53.15,53.15,0,0,0,120.93,42a4,4,0,0,1-1.42-1.78,2,2,0,0,1,2.17-2.46,3.78,3.78,0,0,1,1.76,1,58.82,58.82,0,0,1,16.37,22.88,3.79,3.79,0,0,1,.33,1.26,2,2,0,0,1-2.8,1.79c-.34-.17-.69-.45-1.05-.32Q134,61,131.75,57.64A4.41,4.41,0,0,0,130.19,56,2.19,2.19,0,0,0,127,58.08a4.47,4.47,0,0,0,1,2.21l8.62,12.63a3.33,3.33,0,0,0,1.92,1.63,2.19,2.19,0,0,0,1.87-.72,6.37,6.37,0,0,0,1.1-1.76l6.75-13.92a4.25,4.25,0,0,0,.55-1.64,2.39,2.39,0,0,0-1.93-2.4,2.55,2.55,0,0,0-2.7,1.55,95.43,95.43,0,0,1-5.69,12l1.2-2.89a2.36,2.36,0,0,1-2.61.46,6.28,6.28,0,0,1,1.22,2.15,8.91,8.91,0,0,1-1.77-2.9,2.24,2.24,0,0,0,3.84-1.7,4.51,4.51,0,0,0-.36-1.29,59.06,59.06,0,0,0-16.38-22.83,4.31,4.31,0,0,0-1.76-1A2.21,2.21,0,0,0,120,41.41ZM122,38a1.77,1.77,0,0,0-2.15,2.4,3.69,3.69,0,0,0,1.08,1.25A55.12,55.12,0,0,1,136.1,62.73a3.63,3.63,0,0,0,1,1.58,1.77,1.77,0,0,0,2.83-1.07,3.5,3.5,0,0,0-.38-1.89,59.84,59.84,0,0,0-16.39-22.6A3.29,3.29,0,0,0,122,38Zm-19.5,100.51a.35.35,0,0,1-.24.06c-.08,0-.13-.15,0-.2s.08-.2,0-.3a3.36,3.36,0,0,1-.18-.88.82.82,0,0,1,.42-.74,2.72,2.72,0,0,0,.19,2.09c.08.15-.06.34-.23.37a.79.79,0,0,1-.49-.1l-1.53-.68c-.25-.11-.55-.32-.47-.58a.64.64,0,0,1,.23-.26L102,136c.07-.05.2-.08.21,0l-1.94,1.4a.34.34,0,0,0-.16.21c0,.14.13.23.26.29l1.71.79a.63.63,0,0,0,.27.06.15.15,0,0,0,.12-.21Zm-.26-2.54a.27.27,0,0,1,.38.13.27.27,0,0,1-.19.34.6.6,0,0,0-.19-.47Zm1.89-.92a.13.13,0,0,1-.09-.19.42.42,0,0,1,.17-.18c.07,0,.17-.09.23,0s0,.2-.06.26-.2.09-.25.18v0ZM62.93,35l11.48-4.8-10-7.66a5.3,5.3,0,0,1-1.09-1,2.45,2.45,0,0,1,2.41-3.83,4.93,4.93,0,0,1,2.09,1.11l12.11,9.26a4.43,4.43,0,0,1,2,2.46,2.25,2.25,0,0,1-.67,2,4.29,4.29,0,0,1-1.34.75l-15,6.32a4.92,4.92,0,0,1-1.71.48,2.45,2.45,0,0,1-1.78-4.21,5.1,5.1,0,0,1,1.57-.9ZM67.41,18.8a4.46,4.46,0,0,0-1.49-.86,2.22,2.22,0,0,0-2.52,3.2,4.47,4.47,0,0,0,1.29,1.31l10.06,7.7a7.46,7.46,0,0,1-1.75.91l-9.91,4.12a4.34,4.34,0,0,0-1.74,1.08,2.18,2.18,0,0,0,1.5,3.57,4.39,4.39,0,0,0,2-.48l14.78-6.16A4.34,4.34,0,0,0,81,32.38a2.28,2.28,0,0,0,.1-3.05,4.9,4.9,0,0,0-.6-.51l-13.1-10Zm73.2,45.26a1.22,1.22,0,0,1,.54-.66l-2,4.16c-.11.24-.27.51-.54.53s-.49-.23-.65-.46l-6.84-10.1a3.52,3.52,0,0,0-.81-1,1.8,1.8,0,0,0-2.81,1.8,3.56,3.56,0,0,0,.63,1.28l8.93,13.24a2.92,2.92,0,0,0,1,1.08,1.76,1.76,0,0,0,1.65-.14,3,3,0,0,0,1.1-1.29,2,2,0,0,1-2.91,1.51,4,4,0,0,1-1.23-1.32L128.2,60.13a3.84,3.84,0,0,1-.91-2.33,2,2,0,0,1,2.62-1.65,3.94,3.94,0,0,1,1.61,1.6l6.08,9A3.56,3.56,0,0,0,138.69,68l1.92-3.91Zm5.16-1.24-4.35,8.88a2,2,0,0,1-.65.87q2.61-5.44,5.29-10.84a2,2,0,0,1-.29,1.09Zm-4.63.59c-.14-.16,0-.41.05-.6l1.46-2.91a2.68,2.68,0,0,1,.47-.73.59.59,0,0,1-.08.44l-1.9,3.8Zm5.52-2.85a1.53,1.53,0,0,1-.57,1.24,2.71,2.71,0,0,1,.57-1.24ZM144,57.07a3,3,0,0,0,.18-1.13,2.18,2.18,0,0,1,2-1.57,2.62,2.62,0,0,1,.79,0,2.11,2.11,0,0,1,1.56,2.38,4.06,4.06,0,0,1-.38,1L147,60.19c-.08.17-.22.38-.41.35L148,57.69a3.3,3.3,0,0,0,.42-1.32,1.78,1.78,0,0,0-.83-1.47,2.35,2.35,0,0,0-1.7-.3,2.14,2.14,0,0,0-.59.19,1.69,1.69,0,0,0-.9,1.27,6.69,6.69,0,0,1-1.35,3.18,10.78,10.78,0,0,1,1-2.17ZM54.27,129.33a2.07,2.07,0,0,1-.13,2,2,2,0,0,1-1.84.87,4,4,0,0,1-1.86-.89,60.28,60.28,0,0,1-20.94-28,3.78,3.78,0,0,1-.29-2.35,2,2,0,0,1,2.64-1.18,4.06,4.06,0,0,1,1.73,2.56A53.87,53.87,0,0,0,52.86,128a4.3,4.3,0,0,1,1.41,1.37Zm-2,2.7a1.82,1.82,0,0,0,1.91-2,3.65,3.65,0,0,0-1.7-2,54.25,54.25,0,0,1-19.19-25.61c-.33-1-.75-2-1.7-2.38a1.75,1.75,0,0,0-2.18,1,3.32,3.32,0,0,0,.24,2.18A59.13,59.13,0,0,0,50.82,131.3a3.36,3.36,0,0,0,1.49.73ZM21.16,102.86a5.11,5.11,0,0,1,.73-1.68q3.32-5.61,6.62-11.24a5.77,5.77,0,0,1,1-1.32A2.41,2.41,0,0,1,32,88.13,4.09,4.09,0,0,1,33.71,90l8.65,15.24a5,5,0,0,1,.6,1.33,2.6,2.6,0,0,1-.87,2.6,2.46,2.46,0,0,1-2.71.2,4.66,4.66,0,0,1-1.51-1.85L31.08,95.47l-4.88,8.32a5.05,5.05,0,0,1-1,1.36,2.48,2.48,0,0,1-4-2.29Zm.9-1.45a4.37,4.37,0,0,0-.66,1.52A2.2,2.2,0,0,0,24.92,105a4.37,4.37,0,0,0,1-1.31l5.14-8.66,1,1.85q3,5.32,6,10.65A4.63,4.63,0,0,0,39.26,109a2.23,2.23,0,0,0,3.52-2.14,4.26,4.26,0,0,0-.61-1.44q-4.31-7.65-8.63-15.3a4.32,4.32,0,0,0-1.26-1.57,2.22,2.22,0,0,0-2.75.33,4.78,4.78,0,0,0-.52.75l-7,11.77Zm52.8-71c.06,0,.08-.11,0-.12s-.08.11,0,.12Zm-6-3.19a2,2,0,0,1,1.18,3,4.12,4.12,0,0,1-2.21,1.28,54.64,54.64,0,0,0-26,18.38,4,4,0,0,1-2.19,1.76,2,2,0,0,1-2.22-1.71,3.76,3.76,0,0,1,1-2.43,60.14,60.14,0,0,1,28.44-20,3.73,3.73,0,0,1,2-.26ZM37.57,49.81a1.81,1.81,0,0,0,2.34,1.56,3.59,3.59,0,0,0,1.44-1.3A55.39,55.39,0,0,1,67.66,31.33,3.66,3.66,0,0,0,69.85,30a1.84,1.84,0,0,0-1.5-2.6,3.44,3.44,0,0,0-1,.21A59.2,59.2,0,0,0,38.49,47.76a3.46,3.46,0,0,0-.92,2.05Zm64.23,87,.08,1.11c0,.18-.26.19-.43.12l-.85-.32-.36-.15a4.15,4.15,0,0,0,1.16-.78c.11-.1.32-.2.38-.06a.19.19,0,0,1,0,.08Zm-.74.56a.2.2,0,0,0-.08.13.18.18,0,0,0,.09.1,1.31,1.31,0,0,0,.52.2v-.75a3,3,0,0,0-.52.32Zm1-.88c.14,0,.1-.29,0-.26s-.09.29,0,.26ZM63.1,35.39,75.32,30.3,64.68,22.16a4,4,0,0,1-1-1,2,2,0,0,1,2.14-3,4,4,0,0,1,1.49.84l12.9,9.87a2.93,2.93,0,0,1,1.29,1.62,2,2,0,0,1-.71,1.75,5.88,5.88,0,0,1-1.71,1l-1.67.7L64.57,39.23a4,4,0,0,1-1.49.41,2,2,0,0,1-1.51-3.32,4,4,0,0,1,1.53-.93Zm12.39-5.21a3.58,3.58,0,0,1-1.49.94L63.15,35.6a3.41,3.41,0,0,0-1.47.92,1.76,1.76,0,0,0,1.1,2.85,3.56,3.56,0,0,0,1.87-.4l15-6.26a3.49,3.49,0,0,0,.89-.48A1.82,1.82,0,0,0,81,30.06a3.51,3.51,0,0,0-1.12-1.15L67,19.09a3.76,3.76,0,0,0-1.26-.71A1.78,1.78,0,0,0,63.82,21a3.66,3.66,0,0,0,.93.91l10.74,8.24ZM21.82,103.33a1.8,1.8,0,0,0,2.25,1.6,3.49,3.49,0,0,0,1.7-1.75l4.81-8.27c.13-.21.44-.44.57-.23a.21.21,0,0,0-.07.34c-.17-.1-.36.09-.45.26q-2.36,4-4.69,8A4.07,4.07,0,0,1,24.41,105a2,2,0,0,1-2.8-2.12,3.94,3.94,0,0,1,.56-1.28Q25.49,96,28.78,90.4A5.71,5.71,0,0,1,29.84,89a2,2,0,0,1,1.63-.55c.83.15,1.35,1,1.77,1.71l8.84,15.63a4.25,4.25,0,0,1,.44,1,2,2,0,0,1-3,2.15,4,4,0,0,1-1.17-1.47L31.75,95.75a2.84,2.84,0,0,1-.45-1.2l7.16,12.67a3.51,3.51,0,0,0,1.43,1.61,1.75,1.75,0,0,0,1.7-.15,1.79,1.79,0,0,0,.75-1.53,3.48,3.48,0,0,0-.56-1.47L32.9,90a3.14,3.14,0,0,0-.68-.93,1.68,1.68,0,0,0-1.73-.25,3.24,3.24,0,0,0-1.36,1.49l-6.67,11.29a3.46,3.46,0,0,0-.64,1.75Z"></path> </g> <g id="Draw_Layer-2" data-name="Draw Layer"> <path class="cls-1" d="M76.91,1.28A5.7,5.7,0,0,1,80,.34,88.34,88.34,0,0,1,125.8,8.61a43.54,43.54,0,0,1,4.75,2.57,30.28,30.28,0,0,1,3.67,2.72A6.54,6.54,0,0,1,136,16.07c-.53-2.81-1.07-5.62-1.6-8.43a6,6,0,0,1,0-3.3,3.11,3.11,0,0,1,4.92-.91,5.92,5.92,0,0,1,1.18,3l3.58,19.17a5.47,5.47,0,0,1,.13,2.05A2.88,2.88,0,0,1,141.8,30a5.55,5.55,0,0,1-2.43-.47L114.5,20.81a6.16,6.16,0,0,1-2-1,3,3,0,0,1,1.7-5.24,5.93,5.93,0,0,1,2.51.5l14.53,5.15c-.08-1.49-1.5-2.51-2.79-3.26A81.07,81.07,0,0,0,80.81,6.43a6,6,0,0,1-3.46-.34,3,3,0,0,1-.44-4.81ZM142.47,141a4.49,4.49,0,0,1,.68-3.09q5.35-10.84,10.72-21.71a6,6,0,0,1,1.08-1.68A3,3,0,0,1,160,116.2a6,6,0,0,1-1,3.59l-2.78,5.41c-.58,1.13-1.17,2.41-.78,3.62,1.57.19,2.73-1.39,3.47-2.79a82.21,82.21,0,0,0,9.77-43.66,6.31,6.31,0,0,1,.51-3.79,3.12,3.12,0,0,1,5,0,5.7,5.7,0,0,1,.67,2.77A88.18,88.18,0,0,1,160,136.05l9.29-.65c1.52-.11,3.23-.16,4.37.85a3,3,0,0,1-.46,4.67,5.85,5.85,0,0,1-2.56.57l-16.5,1.12-6.52.44a8.82,8.82,0,0,1-3-.13,3,3,0,0,1-2.15-1.91ZM24.81,34.2c1.58.92,1.38,3.22,1,5L21.07,59.74a6,6,0,0,1-1,2.51A3,3,0,0,1,14.77,61,6,6,0,0,1,15,58.44Q16.21,53,17.45,47.6A79.44,79.44,0,0,0,7.33,92.67c.12,1.62.23,3.44-.86,4.65a3,3,0,0,1-4.37-.1,5.63,5.63,0,0,1-1-3.23A88,88,0,0,1,12.64,43.4L5.43,45.6A5.88,5.88,0,0,1,2.26,46,3,3,0,0,1,1.17,40.7a5.83,5.83,0,0,1,1.94-.85l18.24-5.57c1.14-.35,2.43-.68,3.46-.08ZM92,168.58a3.06,3.06,0,0,1,.08,4.83,5.72,5.72,0,0,1-3.27.72,87.87,87.87,0,0,1-38.55-8.6,18.13,18.13,0,0,1-4.68-2.92,61.91,61.91,0,0,0,3.67,12.58A3.64,3.64,0,0,1,48,179.5a3.33,3.33,0,0,1-4.36-.75,5.94,5.94,0,0,1-.83-2.05l-6.21-22.91a5.56,5.56,0,0,1-.22-3.19,2.82,2.82,0,0,1,2.11-1.84,5.53,5.53,0,0,1,2.41.27l23.66,6.22a3.06,3.06,0,0,1,.36,5.8,6.24,6.24,0,0,1-3.9-.21L49.29,157.6c-.26-.07-.62-.08-.68.17A82.65,82.65,0,0,0,88.6,168a6.13,6.13,0,0,1,3.4.63Z"></path> </g> <g id="Draw_Layer-3" data-name="Draw Layer"> <path class="cls-1" d="M105.68,113.81a2.39,2.39,0,0,1-1.05.88A37.39,37.39,0,0,1,85.49,119a21.53,21.53,0,0,1-2.27-.22,12.24,12.24,0,0,1-1.88-.45,2.74,2.74,0,0,1-1.06-.54l2,3a2.61,2.61,0,0,1,.55,1.28,1.31,1.31,0,0,1-1.77,1.16,2.51,2.51,0,0,1-1-1l-4.55-6.86a2.33,2.33,0,0,1-.39-.77,1.22,1.22,0,0,1,.58-1.29,2.34,2.34,0,0,1,1-.22l11.09-.73a2.58,2.58,0,0,1,1,.06,1.27,1.27,0,0,1,.2,2.32A2.68,2.68,0,0,1,88,115l-6.49.4a2,2,0,0,0,1.62.8,34.15,34.15,0,0,0,20.23-3.78,2.66,2.66,0,0,1,1.4-.44,1.29,1.29,0,0,1,1,1.8ZM57.15,70.37a1.88,1.88,0,0,1,.25,1.31q-.3,5.1-.58,10.2a2.58,2.58,0,0,1-.14.83,1.27,1.27,0,0,1-2.25.19,2.57,2.57,0,0,1-.21-1.56l.19-2.56a2.11,2.11,0,0,0-.3-1.53c-.64.18-.83,1-.89,1.65a34.7,34.7,0,0,0,3.42,18.58A2.66,2.66,0,0,1,57.07,99a1.32,1.32,0,0,1-2,.83,2.37,2.37,0,0,1-.72-1,37.22,37.22,0,0,1-3.23-23.71L47.67,77a2.43,2.43,0,0,1-1.84.39,1.27,1.27,0,0,1-.59-1.88,2.42,2.42,0,0,1,.89-.65l6.23-3.16,2.46-1.25A3.92,3.92,0,0,1,56,70a1.28,1.28,0,0,1,1.15.39Zm63.33,22c-.76-.1-1.06-1-1.2-1.78l-1.56-8.76a2.4,2.4,0,0,1,0-1.13,1.27,1.27,0,0,1,2.27-.38,2.42,2.42,0,0,1,.34,1c.28,1.54.55,3.08.83,4.62a33.57,33.57,0,0,0-3.51-19.17,2.59,2.59,0,0,1-.44-2,1.27,1.27,0,0,1,1.72-.68,2.36,2.36,0,0,1,.9,1.09,37.08,37.08,0,0,1,3.89,21.55l2.44-2a2.49,2.49,0,0,1,1.17-.66,1.27,1.27,0,0,1,1.23.52,1.29,1.29,0,0,1,.06,1.34,2.73,2.73,0,0,1-.61.66l-6.17,5.17a1.83,1.83,0,0,1-1.33.6ZM72.2,51.33a1.3,1.3,0,0,1-.83-1.87,2.48,2.48,0,0,1,1.15-.82,37.21,37.21,0,0,1,16.39-3,7.42,7.42,0,0,1,2.3.36,26.07,26.07,0,0,0-3.5-4.28,1.51,1.51,0,0,1-.21-1.88,1.39,1.39,0,0,1,1.81-.43,2.44,2.44,0,0,1,.66.66l6.2,7.87a2.42,2.42,0,0,1,.61,1.2,1.17,1.17,0,0,1-.52,1.06,2.2,2.2,0,0,1-1,.3L85.06,52A1.29,1.29,0,0,1,84,49.78a2.6,2.6,0,0,1,1.55-.57l5.08-.67c.11,0,.26-.07.24-.18A34.93,34.93,0,0,0,73.62,51a2.65,2.65,0,0,1-1.42.32Z"></path> </g> </g> </svg> 